<svg id="Слой_1" data-name="Слой 1" xmlns="http://www.w3.org/2000/svg" viewBox="0 0 250 137"><defs><style>.cls-1{fill:#fff;}</style></defs><rect class="cls-1" width="250" height="137" rx="58"/><path d="M94.46,47.3V63.4H92.2V49.3H85.07L84.91,54a32.1,32.1,0,0,1-.54,5.4A6.75,6.75,0,0,1,83,62.54a3.14,3.14,0,0,1-2.49,1,6.12,6.12,0,0,1-1.45-.18l.17-2a2.62,2.62,0,0,0,.73.1,1.9,1.9,0,0,0,1.59-.8,5.74,5.74,0,0,0,.9-2.38,30.28,30.28,0,0,0,.39-4.19l.25-6.78Z"/><path d="M111.16,61.4v2H99.47V47.3h11.36v2h-9.06v5h8.08v2h-8.08v5.2Zm-9-16.14a1.12,1.12,0,0,1-.35-.84,1.17,1.17,0,0,1,.35-.85,1.13,1.13,0,0,1,.83-.34,1.09,1.09,0,0,1,.82.34,1.13,1.13,0,0,1,.35.85,1.08,1.08,0,0,1-.35.84,1.09,1.09,0,0,1-.82.34A1.13,1.13,0,0,1,102.21,45.26Zm4.28,0a1.12,1.12,0,0,1-.35-.84,1.17,1.17,0,0,1,.35-.85,1.17,1.17,0,0,1,1.65,0,1.17,1.17,0,0,1,.35.85,1.17,1.17,0,0,1-2,.84Z"/><path d="M125.3,49.3H117l0,14.1h-2.27V47.3h10.55Z"/><path d="M133.67,56.32h-3.36V63.4h-2.25V47.3h2.25v7h3.41l5.06-7h2.46l-5.75,7.8,6,8.3h-2.63Z"/><path d="M154.12,59.37h-8.56l-1.77,4h-2.37l7.29-16.1H151l7.32,16.1h-2.42Zm-.81-1.83-3.47-7.89-3.47,7.89Z"/><path d="M172.13,47.3V63.4h-2.26V58.71h-4.43l-.63,0L161.6,63.4h-2.44l3.56-5.11a5,5,0,0,1-2.64-1.92,5.6,5.6,0,0,1-.92-3.27,5.33,5.33,0,0,1,1.76-4.27,7,7,0,0,1,4.75-1.53Zm-9.6,8.52a4.42,4.42,0,0,0,3.09,1h4.25V49.3h-4.11a4.67,4.67,0,0,0-3.18,1,4.12,4.12,0,0,0-.05,5.55Z"/><path d="M54.8,74.9h2.27V87.32L66.59,74.9h2.12V91H66.46V78.6L56.91,91H54.8Z"/><path d="M93.78,74.9V91H91.53V76.9H82.19V91H79.91V74.9Z"/><path d="M110,76.4a5.62,5.62,0,0,1,0,8.23,7.46,7.46,0,0,1-4.93,1.49h-4V91h-2.3V74.9h6.28A7.46,7.46,0,0,1,110,76.4Zm-1.66,6.79a3.7,3.7,0,0,0,0-5.36A5.21,5.21,0,0,0,105,76.9h-3.91v7.22H105A5.21,5.21,0,0,0,108.34,83.19Z"/><path d="M118.07,90.11a7.78,7.78,0,0,1-3.07-3,8.47,8.47,0,0,1,0-8.42,7.78,7.78,0,0,1,3.07-2.95,9.5,9.5,0,0,1,8.76,0,7.87,7.87,0,0,1,3.06,2.94,8.64,8.64,0,0,1,0,8.44,7.87,7.87,0,0,1-3.06,2.94,9.5,9.5,0,0,1-8.76,0Zm7.58-1.78a5.87,5.87,0,0,0,2.23-2.22,6.57,6.57,0,0,0,0-6.32,5.94,5.94,0,0,0-2.23-2.22,6.33,6.33,0,0,0-3.19-.81,6.43,6.43,0,0,0-3.21.81A5.78,5.78,0,0,0,117,79.79a6.5,6.5,0,0,0,0,6.32,5.72,5.72,0,0,0,2.25,2.22,6.43,6.43,0,0,0,3.21.81A6.33,6.33,0,0,0,125.65,88.33Z"/><path d="M146.29,74.9V91H144V84.63a13.1,13.1,0,0,1-4.71,1,6.69,6.69,0,0,1-4.57-1.43,5.14,5.14,0,0,1-1.62-4.07V74.9h2.25v5a3.51,3.51,0,0,0,1.1,2.76,4.52,4.52,0,0,0,3.09,1,10.63,10.63,0,0,0,4.46-1V74.9Z"/><path d="M165.15,74.9V91h-2.3V83.82H153.6V91h-2.3V74.9h2.3v6.92h9.25V74.9Z"/><path d="M180.63,87h-8.56l-1.77,4h-2.37l7.29-16.1h2.28L184.81,91H182.4Zm-.81-1.84-3.47-7.88-3.47,7.88Z"/><path d="M198.64,74.9V91h-2.26V86.31h-4.44l-.62,0L188.1,91h-2.44l3.57-5.11A5,5,0,0,1,186.58,84a5.67,5.67,0,0,1-.92-3.27,5.36,5.36,0,0,1,1.76-4.27,7,7,0,0,1,4.75-1.53ZM189,83.42a4.44,4.44,0,0,0,3.1,1h4.25V76.9h-4.11a4.67,4.67,0,0,0-3.18,1,4.13,4.13,0,0,0-.06,5.55Z"/></svg>