<svg width="40" height="37" viewBox="0 0 40 37" fill="none" xmlns="http://www.w3.org/2000/svg">
<g clip-path="url(#clip0_419_15)">
<path d="M37.48 5.49439H2.52C1.12 5.49439 0 4.26855 0 2.75814C0 1.22584 1.12 0 2.52 0H37.5C38.88 0 40.02 1.22584 40.02 2.75814C40 4.26855 38.88 5.49439 37.48 5.49439Z" fill="white"/>
<path d="M37.48 21.1676H2.52C1.12 21.1676 0 19.9418 0 18.4314C0 16.9209 1.12 15.6732 2.52 15.6732H37.5C38.88 15.6732 40.02 16.8991 40.02 18.4314C40 19.9418 38.88 21.1676 37.48 21.1676Z" fill="white"/>
</g>
<defs>
<clipPath id="clip0_419_15">
<rect width="40" height="36.8627" fill="white"/>
</clipPath>
</defs>
</svg>
