<svg id="Слой_1" data-name="Слой 1" xmlns="http://www.w3.org/2000/svg" viewBox="0 0 250 137"><defs><style>.cls-1{fill:#fff;}</style></defs><rect class="cls-1" width="250" height="137" rx="58"/><path d="M77.79,46.54v5.65H75.65V48.54H61.78V32.44h2.28v14.1h9V32.44h2.28v14.1Z"/><path d="M92.53,46.54v2H80.85V32.44H92.21v2H83.15v4.94h8.07v2H83.15v5.2Z"/><path d="M109.3,32.44v16.1h-2.25V34.44H99.92l-.17,4.71a32.12,32.12,0,0,1-.54,5.41,6.66,6.66,0,0,1-1.34,3.11,3.15,3.15,0,0,1-2.49,1,6,6,0,0,1-1.44-.18l.16-2a3,3,0,0,0,.73.09,1.89,1.89,0,0,0,1.59-.79,5.74,5.74,0,0,0,.9-2.38,28.79,28.79,0,0,0,.39-4.19L98,32.44Z"/><path d="M125.78,39.34a4.67,4.67,0,0,1,1.53,3.79,5,5,0,0,1-1.65,4,7.1,7.1,0,0,1-4.7,1.38h-6.65V32.44h2.28v5.61h4.78A6.67,6.67,0,0,1,125.78,39.34Zm-1.84,6.47A3.26,3.26,0,0,0,125,43.18q0-3.32-4.14-3.31h-4.28v6.85h4.28A4.59,4.59,0,0,0,123.94,45.81Z"/><path d="M144.56,32.44v16.1h-2.3V41.36H133v7.18h-2.3V32.44H133v6.92h9.25V32.44Z"/><path d="M161,39.34a4.67,4.67,0,0,1,1.53,3.79,5,5,0,0,1-1.65,4,7.1,7.1,0,0,1-4.7,1.38h-6.65V32.44h2.28v5.61h4.78A6.67,6.67,0,0,1,161,39.34Zm-1.84,6.47a3.26,3.26,0,0,0,1.07-2.63q0-3.32-4.14-3.31h-4.28v6.85h4.28A4.61,4.61,0,0,0,159.2,45.81Zm5.92-13.37h2.28v16.1h-2.28Z"/><path d="M172.41,32.44h2.28V44.86l9.52-12.42h2.12v16.1h-2.26V36.14l-9.54,12.4h-2.12Zm4-1.95a2.85,2.85,0,0,1-1-2.33H177a1.78,1.78,0,0,0,.63,1.39,3.12,3.12,0,0,0,3.36,0,1.74,1.74,0,0,0,.66-1.39h1.61a2.89,2.89,0,0,1-1.05,2.32,4.48,4.48,0,0,1-2.89.83A4.56,4.56,0,0,1,176.42,30.49Z"/><path d="M84.14,69.05H80.78v7.09H78.53V60h2.25v7h3.4l5.06-7H91.7L86,67.83l6,8.31H89.36Z"/><path d="M97.16,75.25a8,8,0,0,1-3.08-3,8.54,8.54,0,0,1,0-8.42,8,8,0,0,1,3.08-3,9.5,9.5,0,0,1,8.76,0A8,8,0,0,1,109,63.87a8.64,8.64,0,0,1,0,8.44,7.87,7.87,0,0,1-3.06,2.94,9.5,9.5,0,0,1-8.76,0Zm7.57-1.78A5.87,5.87,0,0,0,107,71.25a6.52,6.52,0,0,0,0-6.33,5.78,5.78,0,0,0-2.23-2.21,6.27,6.27,0,0,0-3.18-.81,6.43,6.43,0,0,0-3.21.81,5.76,5.76,0,0,0-2.25,2.21,6.52,6.52,0,0,0,0,6.33,5.85,5.85,0,0,0,2.25,2.22,6.43,6.43,0,0,0,3.21.8A6.26,6.26,0,0,0,104.73,73.47Z"/><path d="M125,61.53a5.64,5.64,0,0,1,0,8.24,7.51,7.51,0,0,1-4.92,1.49h-4v4.88h-2.3V60h6.28A7.51,7.51,0,0,1,125,61.53Zm-1.66,6.8a3.7,3.7,0,0,0,0-5.36A5.2,5.2,0,0,0,120,62h-3.91v7.22H120A5.2,5.2,0,0,0,123.35,68.33Z"/><path d="M143.87,60v16.1h-2.26V62h-9.33v14.1H130V60Z"/><path d="M162.06,60l-7.15,13.27a6.56,6.56,0,0,1-2,2.37,4.4,4.4,0,0,1-2.51.78,5.35,5.35,0,0,1-2.16-.48l.6-1.84a4.58,4.58,0,0,0,1.51.3,2.9,2.9,0,0,0,2.51-1.61l.37-.58L146.74,60h2.46l5.22,10.21L159.78,60Z"/><path d="M167.11,75.25a7.84,7.84,0,0,1-3.05-2.94,8.64,8.64,0,0,1,0-8.44,8,8,0,0,1,3.06-2.95,9.53,9.53,0,0,1,7.82-.43,7.07,7.07,0,0,1,2.67,1.87l-1.5,1.45a6,6,0,0,0-4.53-1.91,6.55,6.55,0,0,0-3.24.81,5.72,5.72,0,0,0-2.26,2.21,6.52,6.52,0,0,0,0,6.33,5.81,5.81,0,0,0,2.26,2.22,6.54,6.54,0,0,0,3.24.8,6,6,0,0,0,4.53-1.93l1.5,1.45a7.19,7.19,0,0,1-2.68,1.89,9,9,0,0,1-3.46.64A8.94,8.94,0,0,1,167.11,75.25Z"/><path d="M61.07,87.64v16.1H58.81V89.64H51.68l-.16,4.71A32.12,32.12,0,0,1,51,99.76a6.66,6.66,0,0,1-1.34,3.11,3.15,3.15,0,0,1-2.49,1,6.19,6.19,0,0,1-1.45-.18l.17-2a3,3,0,0,0,.73.09,1.89,1.89,0,0,0,1.59-.79,5.74,5.74,0,0,0,.9-2.38,30.28,30.28,0,0,0,.39-4.19l.25-6.78Z"/><path d="M77.77,101.74v2H66.08V87.64H77.44v2H68.38v4.94h8.08v2H68.38v5.2Z"/><path d="M91.91,89.64H83.63l0,14.1H81.38V87.64H91.93Z"/><path d="M100.28,96.65H96.92v7.09H94.67V87.64h2.25v7h3.41l5.06-7h2.46l-5.75,7.79,6,8.31H105.5Z"/><path d="M113.3,102.85a7.92,7.92,0,0,1-3.07-2.95,8.54,8.54,0,0,1,0-8.42,7.94,7.94,0,0,1,3.07-3,9.5,9.5,0,0,1,8.76,0,7.83,7.83,0,0,1,3.06,3,8.58,8.58,0,0,1,0,8.44,7.73,7.73,0,0,1-3.06,2.94,9.5,9.5,0,0,1-8.76,0Zm7.58-1.78a5.94,5.94,0,0,0,2.23-2.22,6.52,6.52,0,0,0,0-6.33,5.84,5.84,0,0,0-2.23-2.21,6.28,6.28,0,0,0-3.19-.81,6.37,6.37,0,0,0-3.2.81,5.85,5.85,0,0,0-2.26,2.21,6.59,6.59,0,0,0,0,6.33,6,6,0,0,0,2.26,2.22,6.36,6.36,0,0,0,3.2.8A6.27,6.27,0,0,0,120.88,101.07Z"/><path d="M151.07,103.74,151,92l-5.82,9.77h-1.05l-5.82-9.7v11.66h-2.21V87.64H138L144.74,99l6.63-11.31h1.88l0,16.1Z"/><path d="M169.75,94.54a4.67,4.67,0,0,1,1.53,3.79,5,5,0,0,1-1.64,4,7.14,7.14,0,0,1-4.7,1.38h-6.65V87.64h2.28v5.61h4.78A6.64,6.64,0,0,1,169.75,94.54ZM167.91,101A3.23,3.23,0,0,0,169,98.38q0-3.31-4.14-3.31h-4.27v6.85h4.27A4.57,4.57,0,0,0,167.91,101Zm5.93-13.37h2.27v16.1h-2.27Z"/><path d="M192.19,89.64h-5.52v14.1h-2.25V89.64h-5.5v-2h13.27Z"/><path d="M206.46,94.54A4.67,4.67,0,0,1,208,98.33a5,5,0,0,1-1.64,4,7.15,7.15,0,0,1-4.71,1.38H195V87.64h2.27v5.61h4.79A6.66,6.66,0,0,1,206.46,94.54ZM204.62,101a3.23,3.23,0,0,0,1.07-2.63q0-3.31-4.14-3.31h-4.28v6.85h4.28A4.57,4.57,0,0,0,204.62,101Z"/></svg>