<svg id="Слой_1" data-name="Слой 1" xmlns="http://www.w3.org/2000/svg" viewBox="0 0 250 137"><defs><style>.cls-1{fill:#fff;}</style></defs><rect class="cls-1" width="250" height="137" rx="58"/><path d="M108.28,54.2v2H96.59V40.1H108v2H98.89v4.95H107v2H98.89v5.2Z"/><path d="M114.66,55.31a7.91,7.91,0,0,1-3-2.94,8.64,8.64,0,0,1,0-8.44A7.87,7.87,0,0,1,114.67,41,8.9,8.9,0,0,1,119,39.92a9.13,9.13,0,0,1,3.45.63,7.1,7.1,0,0,1,2.67,1.87l-1.49,1.45A6,6,0,0,0,119.13,42a6.55,6.55,0,0,0-3.24.81A5.81,5.81,0,0,0,113.63,45a6.5,6.5,0,0,0,0,6.32,5.74,5.74,0,0,0,2.26,2.22,6.55,6.55,0,0,0,3.24.81,6.05,6.05,0,0,0,4.54-1.93l1.49,1.44a7.19,7.19,0,0,1-2.68,1.89,9,9,0,0,1-3.46.64A8.83,8.83,0,0,1,114.66,55.31Z"/><path d="M139.21,42.1h-5.52V56.2h-2.25V42.1h-5.5v-2h13.27Z"/><path d="M153.49,47A4.71,4.71,0,0,1,155,50.8a4.94,4.94,0,0,1-1.64,4,7.12,7.12,0,0,1-4.7,1.38H142V40.1h2.28v5.61h4.78A6.68,6.68,0,0,1,153.49,47Zm-1.85,6.47a3.23,3.23,0,0,0,1.07-2.63q0-3.31-4.14-3.31H144.3v6.85h4.27A4.57,4.57,0,0,0,151.64,53.47Z"/><path d="M31.26,69.7H25.74V83.8H23.49V69.7H18v-2H31.26Z"/><path d="M45.27,69.2a5.6,5.6,0,0,1,0,8.23,7.43,7.43,0,0,1-4.92,1.49h-4V83.8h-2.3V67.7h6.28A7.43,7.43,0,0,1,45.27,69.2ZM43.62,76a3.7,3.7,0,0,0,0-5.36,5.21,5.21,0,0,0-3.34-.93H36.37v7.22h3.91A5.21,5.21,0,0,0,43.62,76Z"/><path d="M62,81.8v2H50.26V67.7H61.62v2H52.56v5h8.07V76.6H52.56v5.2Z"/><path d="M78.06,76.84a4.26,4.26,0,0,1-.69,5.81,7.31,7.31,0,0,1-4.45,1.15H65.56V67.7h6.92a7,7,0,0,1,4.13,1.07,3.55,3.55,0,0,1,1.48,3.07,3.79,3.79,0,0,1-.65,2.23,4,4,0,0,1-1.86,1.38A4.52,4.52,0,0,1,78.06,76.84ZM67.83,74.78h4.49a4.23,4.23,0,0,0,2.56-.66,2.59,2.59,0,0,0,0-3.92,4.12,4.12,0,0,0-2.55-.68H67.83Zm8.74,4.44a2.31,2.31,0,0,0-.93-2,4.78,4.78,0,0,0-2.77-.66h-5V82h5Q76.58,82,76.57,79.22Z"/><path d="M94.42,81.8v2H82.74V67.7H94.1v2H85v5h8.07V76.6H85v5.2Z"/><path d="M111.19,67.7V83.8h-2.26V69.7H101.8l-.16,4.72a32.1,32.1,0,0,1-.54,5.4,6.75,6.75,0,0,1-1.34,3.12,3.17,3.17,0,0,1-2.49,1,6.19,6.19,0,0,1-1.45-.18l.17-2a3,3,0,0,0,.73.09,1.89,1.89,0,0,0,1.59-.79,5.74,5.74,0,0,0,.9-2.38,30.27,30.27,0,0,0,.39-4.18l.25-6.79Z"/><path d="M115,76.53h6.18v1.91H115Z"/><path d="M140.7,80.74a10.39,10.39,0,0,1-6.31,2v1.7h-2.13V82.7a10.51,10.51,0,0,1-6.32-2,6.71,6.71,0,0,1,0-10,10.45,10.45,0,0,1,6.32-2V67.1h2.13v1.64a10.43,10.43,0,0,1,6.3,2,6.73,6.73,0,0,1,0,10ZM127.58,79.4a8.08,8.08,0,0,0,4.68,1.5V70.55a8.08,8.08,0,0,0-4.71,1.5,4.95,4.95,0,0,0,0,7.35Zm11.52,0a4.53,4.53,0,0,0,1.62-3.7,4.43,4.43,0,0,0-1.64-3.64,8.14,8.14,0,0,0-4.69-1.51V80.9A8.08,8.08,0,0,0,139.1,79.4Z"/><path d="M149.32,82.91a7.92,7.92,0,0,1-3.07-3,8.54,8.54,0,0,1,0-8.42,7.92,7.92,0,0,1,3.07-3,9.5,9.5,0,0,1,8.76,0,7.73,7.73,0,0,1,3.06,2.94,8.58,8.58,0,0,1,0,8.44,7.73,7.73,0,0,1-3.06,2.94,9.5,9.5,0,0,1-8.76,0Zm7.58-1.78a5.8,5.8,0,0,0,2.23-2.22,6.5,6.5,0,0,0,0-6.32,5.87,5.87,0,0,0-2.23-2.22,6.28,6.28,0,0,0-3.19-.81,6.37,6.37,0,0,0-3.2.81,5.88,5.88,0,0,0-2.26,2.22,6.57,6.57,0,0,0,0,6.32,5.81,5.81,0,0,0,2.26,2.22,6.37,6.37,0,0,0,3.2.81A6.28,6.28,0,0,0,156.9,81.13Z"/><path d="M177.17,69.2a5.6,5.6,0,0,1,0,8.23,7.41,7.41,0,0,1-4.92,1.49h-4V83.8H166V67.7h6.28A7.42,7.42,0,0,1,177.17,69.2ZM175.52,76a3.7,3.7,0,0,0,0-5.36,5.21,5.21,0,0,0-3.34-.93h-3.91v7.22h3.91A5.21,5.21,0,0,0,175.52,76Z"/><path d="M197.09,83.8l0-11.73-5.82,9.77h-1.06l-5.82-9.7V83.8h-2.2V67.7h1.88L190.77,79l6.62-11.32h1.89l0,16.1Z"/><path d="M214.78,79.77h-8.56l-1.77,4h-2.37l7.3-16.1h2.27L219,83.8h-2.42ZM214,77.93l-3.47-7.88L207,77.93Z"/><path d="M232,69.7h-5.52V83.8h-2.26V69.7h-5.49v-2H232Z"/></svg>