<svg width="110" height="108" fill="none" xmlns="http://www.w3.org/2000/svg"><path d="M60.55 107.492c27.31 0 49.45-22.14 49.45-49.45 0-27.31-22.14-49.449-49.45-49.449-27.31 0-49.449 22.14-49.449 49.45 0 27.31 22.14 49.449 49.45 49.449z" fill="#fff"/><path d="M4.865 52.986a5.953 5.953 0 0 1-4.73-7.11 6.32 6.32 0 0 1 2.454-4.088l1.264 1.58a4.593 4.593 0 0 0-1.885 2.96 3.972 3.972 0 0 0 3.318 4.551 3.908 3.908 0 0 0 4.888-3.066 4.793 4.793 0 0 0-.305-2.95l-2.107-.431-.6 2.928-1.75-.358.99-4.877 4.815.98a7.48 7.48 0 0 1 .8 5.193 5.805 5.805 0 0 1-7.152 4.688zM5.254 38.975l.748-1.875 1.844.737a3.16 3.16 0 0 1-.843-3.708l1.991.8-.052.106c-.654 1.644 0 3.224 2.107 4.088l3.16 1.243-.748 1.875-8.207-3.266zM18.117 32.496l-.937-.537a3.592 3.592 0 0 1-.327 3.108 2.823 2.823 0 0 1-3.95 1.359c-1.697-.97-1.75-2.76-.727-4.54a7.309 7.309 0 0 1 1.527-1.929l-.147-.084c-1.054-.61-2.023-.274-2.718.948a6.152 6.152 0 0 0-.77 2.455l-1.685-.327a7.533 7.533 0 0 1 1.054-3.276c1.296-2.265 3.16-2.686 5.162-1.517l4.54 2.602-1.022 1.738zm-3.16-1.875c-.528.443-.97.979-1.307 1.58-.632 1.106-.558 2.012.211 2.455.77.442 1.507 0 1.98-.832a2.107 2.107 0 0 0-.442-2.95l-.442-.253zM13.535 23.384l1.338-1.517 1.106.969a3.52 3.52 0 0 1 .737-3.34c1.38-1.57 3.95-1.99 6.173 0a4.213 4.213 0 0 1 .717 6.11 3.591 3.591 0 0 1-3.16 1.223l3.033 2.665-1.338 1.517-8.606-7.627zm7.974-2.402a2.613 2.613 0 0 0-3.792 0 2.855 2.855 0 0 0 4.266 3.75 2.59 2.59 0 0 0-.474-3.75zM24.343 18.17a4.382 4.382 0 0 1 .674-6.269c2.244-1.685 4.699-.78 6.226 1.243l.316.474-5.172 3.908a2.455 2.455 0 0 0 3.371.253 3.161 3.161 0 0 0 1.275-2.275l1.58.126a4.603 4.603 0 0 1-8.27 2.54zm4.836-4.425a2.276 2.276 0 0 0-3.16-.506 2.38 2.38 0 0 0-.433 3.223l3.593-2.717zM44.443 11.68l-.38-1.054a3.602 3.602 0 0 1-2.232 2.202c-1.56.58-3.277.21-3.909-1.475-.632-1.685.411-3.244 2.328-3.971a7.374 7.374 0 0 1 2.413-.506l-.053-.158c-.432-1.148-1.39-1.496-2.697-1-.818.3-1.559.779-2.17 1.4L36.69 5.791a7.49 7.49 0 0 1 2.886-1.865c2.434-.916 4.109-.084 4.94 2.107l1.834 4.899-1.907.748zM43.19 8.203a5.72 5.72 0 0 0-2.013.39c-1.19.443-1.717 1.19-1.4 2.023.315.832 1.158.948 2.106.621 1.254-.474 1.928-1.527 1.538-2.56l-.231-.474zM46.476 1.946l1.98-.4.401 1.948A3.16 3.16 0 0 1 51.491.766l.421 2.107h-.116c-1.727.348-2.718 1.728-2.254 4.014l.621 3.265-1.98.4-1.707-8.606zM53.324 4.98a4.698 4.698 0 1 1 4.856 4.414 4.604 4.604 0 0 1-4.856-4.414zm7.374-.285a2.718 2.718 0 0 0-2.844-2.75 2.655 2.655 0 0 0-2.54 2.94 2.738 2.738 0 0 0 2.793 2.729 2.665 2.665 0 0 0 2.591-2.919zM65.47.197l1.98.411-.263 1.338a3.16 3.16 0 0 1 2.94-.948 2.76 2.76 0 0 1 2.254 2.001 3.602 3.602 0 0 1 3.245-.916c1.885.39 2.78 1.822 2.349 3.93l-1.138 5.52-1.98-.412 1.053-4.909c.285-1.38-.2-2.243-1.317-2.475-1.116-.232-2.001.368-2.296 1.76l-1.064 4.877-1.98-.411 1.053-4.92c.284-1.348-.222-2.233-1.317-2.455-1.096-.22-2.012.432-2.297 1.77L65.64 9.225l-1.98-.41L65.47.196zM83.01 14.693l.464-.98a3.591 3.591 0 0 1-3.16-.074c-1.507-.726-2.423-2.212-1.654-3.845.769-1.633 2.612-1.96 4.477-1.053.752.344 1.443.81 2.043 1.38l.074-.148c.516-1.106.116-2.043-1.159-2.644a6.12 6.12 0 0 0-2.517-.58l.19-1.727a7.753 7.753 0 0 1 3.35.78c2.401 1.116 2.97 2.907 1.916 5.025l-2.212 4.73-1.812-.864zm1.623-3.266a5.522 5.522 0 0 0-1.675-1.19c-1.138-.548-2.044-.4-2.423.4-.38.8.116 1.506.98 1.907a2.106 2.106 0 0 0 2.907-.664l.21-.453z" fill="#000"/><path d="M60.16 101.224c23.85 0 43.182-19.333 43.182-43.181 0-23.849-19.333-43.182-43.181-43.182-23.849 0-43.182 19.333-43.182 43.182 0 23.848 19.333 43.181 43.182 43.181z" fill="#C9B9E6"/><path d="M60.16 95.356c20.609 0 37.314-16.706 37.314-37.313 0-20.608-16.706-37.314-37.313-37.314-20.608 0-37.314 16.706-37.314 37.313 0 20.608 16.706 37.314 37.314 37.314z" fill="#B29DDB"/><path d="M60.16 88.73c16.949 0 30.688-13.74 30.688-30.687 0-16.949-13.74-30.688-30.687-30.688-16.948 0-30.688 13.74-30.688 30.688S43.213 88.73 60.161 88.73z" fill="#9B82D0"/><path d="M60.16 82.41c13.458 0 24.367-10.91 24.367-24.367 0-13.458-10.909-24.367-24.366-24.367-13.458 0-24.367 10.91-24.367 24.367s10.91 24.366 24.367 24.366z" fill="#8B6FC9"/><path d="M83.874 60.75v2.297a8.248 8.248 0 0 1-2.518 5.151c-.252.274 0 .38.095.527.992 1 1.736 2.22 2.17 3.56.114.522.198 1.05.253 1.58v.211a.77.77 0 0 0 0 .611v.2c-.081.261-.081.54 0 .801v.306a7.595 7.595 0 0 1-1.506 3.971 8.428 8.428 0 0 1-6.827 3.624 8.554 8.554 0 0 1-7.153-3.16.557.557 0 0 0-.79-.169 8.429 8.429 0 0 1-3.687.811 8.597 8.597 0 0 1-4.625-1.338 8.429 8.429 0 0 1-2.422-2.222c-.253-.348-.474-.359-.843-.169a8.48 8.48 0 0 1-9.408-.558 8.429 8.429 0 0 1-3.655-6.922 8.65 8.65 0 0 1 1.327-4.877c.18-.295.127-.442-.158-.6a8.576 8.576 0 0 1-3.065-2.76.832.832 0 0 0-.801-.338 17.49 17.49 0 0 1-3.234-.19 13.81 13.81 0 0 1-4.688-1.759 1.054 1.054 0 0 1-.58-1.053 6.162 6.162 0 0 1 2.108-4.793c.6-.57.495-.453 0-.99a11.87 11.87 0 0 1-2.013-3.509 2.868 2.868 0 0 1-.158-.59c-.147-.927 0-1.169.833-1.622a14.747 14.747 0 0 1 6.257-1.76.2.2 0 0 0 .158-.083 17.9 17.9 0 0 1-1.159-2.444 16.4 16.4 0 0 1-.758-6.616c.082-1.012.223-2.018.421-3.013 0-.274.148-.527.221-.78a.884.884 0 0 1 .643-.653h.611c.264.116.537 0 .8 0 .264 0 .422.064.622 0h.411a.127.127 0 0 0 .156.037.127.127 0 0 0 .044-.037h.411c.77.116 1.538.064 2.307.158a21.257 21.257 0 0 1 8.154 2.465c.358.2.558.137.737-.21a8.7 8.7 0 0 0 .685-1.686.885.885 0 0 1 .622-.727h.716c.7.26 1.332.678 1.844 1.222a12.526 12.526 0 0 1 3.16 4.214.885.885 0 0 0 .8.558 8.754 8.754 0 0 1 6.732 4.457c.295.505.295.505.79.22a8.712 8.712 0 0 1 9.966.601 8.513 8.513 0 0 1 3.36 6.247 8.638 8.638 0 0 1-1.169 5.11c-.158.273-.147.4.127.6a8.807 8.807 0 0 1 3.16 4.087c.248.646.42 1.317.516 2.002z" fill="#010101"/><path d="M83.874 75.688a.737.737 0 0 1 0-.811v.811z" fill="#191A1E"/><path d="M39.882 31.57c-.274 0-.57.094-.822-.106h.822v.105z" fill="#111216"/><path d="M39.882 31.57v-.127h.6c-.168.21-.4.095-.6.126z" fill="#25262B"/><path d="M83.874 74.687a.453.453 0 0 1 0-.61v.61z" fill="#191A1E"/><path d="M41.093 31.443c-.063.137-.137.116-.2 0h.2z" fill="#77747A"/><path d="m56.547 38.069-1.19.527a11.59 11.59 0 0 0-3.224 1.675 7.375 7.375 0 0 0-2.76 5.54 7.13 7.13 0 0 0 .085 1.77c.052.254 0 .506-.348.37a9.586 9.586 0 0 0-5.14 1.116 9.481 9.481 0 0 0-3.688 2.17 7.606 7.606 0 0 0-1.96 7.374c.053.222.211.443 0 .675a13.209 13.209 0 0 1-4.319-1.201.515.515 0 0 1-.316-.727 5.446 5.446 0 0 1 2.107-2.918c.217-.163.442-.314.675-.453.768-.474.81-1.106.115-1.665a8.5 8.5 0 0 1-2.665-3.592c-.105-.263-.126-.421.19-.569a12.525 12.525 0 0 1 7.016-1.117.917.917 0 0 0 1.053-.463.864.864 0 0 0-.2-1.053 9.87 9.87 0 0 1-2.38-4.214 16.95 16.95 0 0 1-.17-7.796c0-.2.075-.369.38-.358 3.336.016 6.643.626 9.766 1.801.9.35 1.744.83 2.507 1.422a.874.874 0 0 0 1.422-.242c.337-.505.642-1.053.959-1.559.19 0 .284.074.39.19a11.094 11.094 0 0 1 1.632 2.907.421.421 0 0 1 .063.39z" fill="#61AA31"/><path d="M76.584 81.62a6.447 6.447 0 0 1-5.994-1.613 6.573 6.573 0 0 1-2.107-6.794 6.647 6.647 0 0 1 4.993-5.068 5.731 5.731 0 0 1 3.098-.063 6.5 6.5 0 0 1 2.98 2.94 7.943 7.943 0 0 1-1.221 9.354 4.74 4.74 0 0 1-1.749 1.243zM78.607 66.839a12.539 12.539 0 0 0-2.634-.632 8.175 8.175 0 0 0-4.498.843.738.738 0 0 1-1.053-.169 6.942 6.942 0 0 1 2.623-11.672 5.763 5.763 0 0 1 3.476-.158 6.248 6.248 0 0 1 2.94 2.728 7.69 7.69 0 0 1 0 8.049 2.045 2.045 0 0 1-.854 1.011zM76.985 53.313c-.87-.115-1.748-.15-2.623-.106a8.754 8.754 0 0 0-4.636 1.939l-.516.432a8.702 8.702 0 0 0-2.96-3.498.685.685 0 0 1-.285-.41 6.942 6.942 0 0 1 5.51-8.829 5.953 5.953 0 0 1 2.55.084 7.29 7.29 0 0 1 3.665 4.846 7.721 7.721 0 0 1-.431 5.141.8.8 0 0 1-.274.4zM53.197 76.404a6.247 6.247 0 0 1-4.466-.537 6.92 6.92 0 0 1-3.835-7.037 6.995 6.995 0 0 1 5.678-6.015 5.047 5.047 0 0 1 2.655.084 6.49 6.49 0 0 1 3.013 3.087c.158.326 0 .537-.221.758a8.428 8.428 0 0 0-1.507 2.107 7.576 7.576 0 0 0-.316 6.142c.243.674.232.748-.39 1.138-.21.094-.42.168-.61.273zM51.154 60.94c-1.07.137-2.114.432-3.098.874-.62.305-1.203.68-1.738 1.117a.526.526 0 0 1-.632.084 6.933 6.933 0 0 1-2.265-11.282 6.838 6.838 0 0 1 5.973-1.96c.115.029.227.064.337.105a6.994 6.994 0 0 1 3.277 3.614.727.727 0 0 1-.19.874 7.521 7.521 0 0 0-1.601 3.666 8.618 8.618 0 0 0 0 2.328c0 .2 0 .39-.063.58zM62.247 50.574a9.377 9.377 0 0 0-4.393.727 7.914 7.914 0 0 0-1.654.969c-.21.168-.316.137-.453-.095a9.23 9.23 0 0 0-1.854-2.191 4.077 4.077 0 0 1-1.054-2.402 6.87 6.87 0 0 1 5.267-8.112 6.321 6.321 0 0 1 2.855 0 7.374 7.374 0 0 1 3.603 4.214.874.874 0 0 1-.21.98 7.156 7.156 0 0 0-1.939 5.14c-.031.222.042.517-.168.77zM64.986 63.594a9.322 9.322 0 0 0-5.13 1.054c-.707.4-.707.379-1.202-.242A8.428 8.428 0 0 0 55.2 61.75a.864.864 0 0 1-.548-.643 6.954 6.954 0 0 1 5.657-8.67 5.627 5.627 0 0 1 2.497.074A7.123 7.123 0 0 1 66.408 57a.726.726 0 0 1-.148.663 7.892 7.892 0 0 0-1.348 3.74c.003.551.052 1.1.147 1.644.01.21.085.39-.073.547zM65.196 79.038a6.49 6.49 0 0 1-5.678-1.454 6.91 6.91 0 0 1 5.878-12.083c.433.203.798.524 1.054.927.41.586.916 1.099 1.496 1.517.4.306.39.464 0 .79a9.24 9.24 0 0 0-1.696 1.812 7.51 7.51 0 0 0-.632 7.49c.347.696.347.727-.422 1.001z" fill="#6F5AA3"/><path d="M65.196 79.038c.59-.369.59-.369.295-1.053a7.712 7.712 0 0 1 1.528-8.565c.284-.31.598-.593.937-.843.253-.158.253-.316 0-.484a6.194 6.194 0 0 1-1.822-1.886c-.19-.295-.558-.369-.737-.664a4.604 4.604 0 0 1 3.076 1.717c.232.315.497.605.79.864.2.18.179.285 0 .464a8.533 8.533 0 0 0-2.57 4.772 8.217 8.217 0 0 0 .442 4.561c.126.338.073.485-.243.611a5.902 5.902 0 0 1-1.696.506zM53.197 76.404c.28-.24.572-.464.875-.674.2-.126.2-.232.105-.41a6.73 6.73 0 0 1-.653-2.992 7.669 7.669 0 0 1 1.675-4.889c.147-.179.295-.368.453-.537.632-.674.632-.685.126-1.464a8.977 8.977 0 0 0-2.58-2.539 6.679 6.679 0 0 1 4.456 3.066c.126.19 0 .295-.085.431a8.355 8.355 0 0 0-2.138 4.383 7.985 7.985 0 0 0 .284 4.045c.137.4 0 .58-.284.748-.681.425-1.44.708-2.234.832zM76.584 81.62a9.08 9.08 0 0 0 2.634-2.592 7.764 7.764 0 0 0-.97-9.555 13.083 13.083 0 0 0-1.664-1.39 6.615 6.615 0 0 1 4.941 3.876 6.92 6.92 0 0 1-4.488 9.586c-.149.035-.3.06-.453.074zM78.607 66.84a7.797 7.797 0 0 0-1.633-11.484l-.41-.295a6.32 6.32 0 0 1 3.876 2.202 6.922 6.922 0 0 1-.284 9.418c-.643.653-.643.653-1.55.158zM64.986 63.594c-.064-.526-.18-1.053-.19-1.6a7.952 7.952 0 0 1 .758-3.477c.048-.143.115-.277.2-.4.875-.907.296-1.739-.126-2.56a8.364 8.364 0 0 0-2.823-3.045 6.91 6.91 0 0 1 5.13 4.425.473.473 0 0 1-.063.42 8.552 8.552 0 0 0-1.053 6.68l-1.833-.443zM62.247 50.574a8.322 8.322 0 0 1 .706-4.214 6.561 6.561 0 0 1 1.2-1.802.833.833 0 0 0 .211-1.053 8.049 8.049 0 0 0-3.308-3.972.902.902 0 0 1-.137-.147 6.846 6.846 0 0 1 5.046 4.182.517.517 0 0 1-.073.632 8.259 8.259 0 0 0-1.96 5.868v.506c0 .168-.084.358-.358.295l-1.327-.295zM51.154 60.94a7.48 7.48 0 0 1 .347-4.646 7.143 7.143 0 0 1 1.349-2.17c.21-.232.126-.422 0-.653a7.975 7.975 0 0 0-2.866-3.382 2.796 2.796 0 0 1-.273-.221 6.678 6.678 0 0 1 4.814 3.697.316.316 0 0 1-.074.4 8.722 8.722 0 0 0-1.77 5.984c0 .348.306.801 0 1.054-.305.253-.674 0-1.053 0l-.474-.063zM76.985 53.313c.606-1.285.889-2.7.821-4.12a7.785 7.785 0 0 0-1.906-4.635 15.14 15.14 0 0 0-1.855-1.633 6.858 6.858 0 0 1 5.268 4.952 6.953 6.953 0 0 1-.706 5.404c-.19.327-.369.474-.748.274a5.277 5.277 0 0 0-.874-.242z" fill="#5D4D9A"/><path d="M38.344 59.317a9.9 9.9 0 0 1-.4-2.939 7.595 7.595 0 0 1 4.045-6.584 4.889 4.889 0 0 1 1.98-.727 10.039 10.039 0 0 0-2.665 2.455 8.534 8.534 0 0 0-1.338 7.374c.105.39 0 .516-.358.495l-1.264-.074zM49.11 47.95c.369 0 .242-.242.21-.41a7.732 7.732 0 0 1 .359-4.035 7.543 7.543 0 0 1 5.678-4.91 9.26 9.26 0 0 0-3.466 3.604 8.67 8.67 0 0 0-.758 5.899c.005.105.005.21 0 .316-.666-.19-1.341-.344-2.023-.464z" fill="#559633"/><path d="M56.547 38.069a11.586 11.586 0 0 0-1.78-3.16 3.158 3.158 0 0 0-.337-.306c.421-.906.432-.916 1.18-.242a10.587 10.587 0 0 1 2.244 2.907c.179.316.116.432-.243.495a7.96 7.96 0 0 0-1.064.306z" fill="#559533"/><path d="M74.899 69.683a1.053 1.053 0 0 1 1.053.316.844.844 0 0 1-.527 1.338c-.347.074-.705.085-1.053.169a3.383 3.383 0 0 0-2.57 3.044c.01.134.01.267 0 .4a.822.822 0 0 1-.907.749.83.83 0 0 1-.779-.896 5.204 5.204 0 0 1 3.224-4.793 4.32 4.32 0 0 1 1.559-.327zM74.91 56.663a1.054 1.054 0 0 1 1.053.326.843.843 0 0 1-.527 1.338c-.348.074-.706.074-1.053.169a3.381 3.381 0 0 0-2.57 3.034c.01.136.01.274 0 .41a.846.846 0 1 1-1.686-.147A5.183 5.183 0 0 1 73.34 57a4.456 4.456 0 0 1 1.57-.337zM67.43 49.446a5.268 5.268 0 0 1 5.077-4.961.864.864 0 1 1 0 1.727 3.487 3.487 0 0 0-3.381 3.319c0 .632-.38 1.053-.885 1.053-.506 0-.822-.463-.811-1.138zM46.603 69.43a5.267 5.267 0 0 1 5.056-4.993.918.918 0 0 1 1.054.843.874.874 0 0 1-.864.874 3.488 3.488 0 0 0-3.487 3.508.864.864 0 0 1-.895.843c-.559-.021-.885-.453-.864-1.075zM43.137 56.389a5.267 5.267 0 0 1 5.078-4.93.895.895 0 0 1 .98.821.873.873 0 0 1-.896.896 3.476 3.476 0 0 0-3.403 3.402.895.895 0 0 1-.885.917c-.569-.01-.895-.442-.874-1.106zM54.377 45.97a5.267 5.267 0 0 1 5.025-4.951c.611 0 1.054.316 1.054.821a.883.883 0 0 1-.938.917 3.424 3.424 0 0 0-3.382 3.36c0 .6-.39.97-.905.96-.517-.011-.854-.422-.854-1.107zM56.147 58.99a5.267 5.267 0 0 1 5.036-4.95c.6 0 .99.305 1.053.81.063.506-.369.886-.99.917a3.476 3.476 0 0 0-3.34 3.319c0 .642-.368 1.053-.884 1.053-.517 0-.896-.474-.875-1.148zM58.77 71.938a5.172 5.172 0 0 1 5.025-4.878c.622 0 .98.295 1.054.822a.844.844 0 0 1-.938.895 3.477 3.477 0 0 0-3.371 3.33.885.885 0 0 1-.653.958.821.821 0 0 1-.938-.337 1.212 1.212 0 0 1-.179-.79z" fill="#F5F5F5"/></svg>