<svg width="29" height="29" fill="none" xmlns="http://www.w3.org/2000/svg"><rect width="29" height="29" rx="14.5" fill="url(#a)"/><path fill-rule="evenodd" clip-rule="evenodd" d="M6.564 14.347c4.227-1.842 7.046-3.056 8.456-3.642 4.027-1.675 4.863-1.966 5.409-1.976.12-.002.388.028.562.169a.61.61 0 0 1 .206.392c.02.113.043.37.024.571-.218 2.293-1.162 7.857-1.643 10.425-.203 1.087-.603 1.45-.99 1.487-.843.077-1.482-.557-2.297-1.091-1.277-.837-1.998-1.358-3.236-2.174-1.432-.944-.504-1.462.312-2.31.213-.221 3.924-3.596 3.995-3.902.01-.038.018-.181-.067-.256-.085-.076-.21-.05-.3-.03-.128.03-2.167 1.377-6.117 4.043-.578.398-1.102.591-1.572.581-.518-.011-1.514-.293-2.254-.533-.908-.296-1.63-.452-1.567-.953.033-.261.392-.528 1.079-.801z" fill="#fff"/><defs><linearGradient id="a" x1="14.5" y1="0" x2="14.5" y2="28.785" gradientUnits="userSpaceOnUse"><stop stop-color="#2AABEE"/><stop offset="1" stop-color="#229ED9"/></linearGradient></defs></svg>