<svg width="29" height="29" fill="none" xmlns="http://www.w3.org/2000/svg"><rect width="29" height="29" rx="14.5" fill="url(#a)"/><path d="m5.705 22.936 1.243-4.515a8.633 8.633 0 0 1-1.168-4.36c0-4.807 3.932-8.716 8.758-8.716 2.344 0 4.544.907 6.195 2.554a8.622 8.622 0 0 1 2.563 6.166c0 4.808-3.932 8.716-8.762 8.716h-.005a8.8 8.8 0 0 1-4.187-1.061l-4.637 1.216zm4.86-2.793.264.16a7.327 7.327 0 0 0 3.705 1.011h.004c4.011 0 7.279-3.248 7.279-7.245a7.193 7.193 0 0 0-2.13-5.125 7.242 7.242 0 0 0-5.15-2.123c-4.01-.005-7.278 3.244-7.278 7.24 0 1.367.382 2.7 1.113 3.854l.172.276-.735 2.672 2.755-.72z" fill="#fff"/><path d="m6.011 22.63 1.201-4.36a8.345 8.345 0 0 1-1.134-4.205c.005-4.64 3.797-8.415 8.46-8.415a8.42 8.42 0 0 1 5.981 2.467 8.343 8.343 0 0 1 2.474 5.952c0 4.64-3.797 8.415-8.455 8.415h-.004a8.49 8.49 0 0 1-4.041-1.024L6.01 22.63z" fill="url(#b)"/><path d="m5.705 22.936 1.243-4.515a8.633 8.633 0 0 1-1.168-4.36c0-4.807 3.932-8.716 8.758-8.716 2.344 0 4.544.907 6.195 2.554a8.622 8.622 0 0 1 2.563 6.166c0 4.808-3.932 8.716-8.762 8.716h-.005a8.8 8.8 0 0 1-4.187-1.061l-4.637 1.216zm4.86-2.793.264.16a7.327 7.327 0 0 0 3.705 1.011h.004c4.011 0 7.279-3.248 7.279-7.245a7.193 7.193 0 0 0-2.13-5.125 7.242 7.242 0 0 0-5.15-2.123c-4.01-.005-7.278 3.244-7.278 7.24 0 1.367.382 2.7 1.113 3.854l.172.276-.735 2.672 2.755-.72z" fill="url(#c)"/><path fill-rule="evenodd" clip-rule="evenodd" d="M12.35 10.416c-.164-.364-.337-.372-.492-.376-.126-.005-.273-.005-.42-.005a.807.807 0 0 0-.584.272c-.202.217-.764.744-.764 1.819 0 1.07.785 2.107.894 2.253.11.146 1.517 2.416 3.739 3.29 1.848.727 2.226.58 2.625.543.399-.038 1.294-.527 1.478-1.037.18-.51.18-.944.126-1.036-.054-.092-.201-.147-.42-.255-.218-.109-1.294-.636-1.495-.711-.202-.071-.349-.109-.491.109-.148.217-.568.706-.694.852-.126.147-.256.163-.474.055-.219-.109-.924-.339-1.76-1.083-.651-.577-1.092-1.292-1.218-1.509-.126-.217-.013-.334.096-.443.097-.096.219-.255.328-.38.11-.126.147-.218.218-.364.072-.146.038-.272-.016-.38-.055-.105-.483-1.184-.677-1.614z" fill="#fff"/><defs><linearGradient id="a" x1="14.499" y1="28.999" x2="14.499" y2="-.001" gradientUnits="userSpaceOnUse"><stop stop-color="#20B038"/><stop offset="1" stop-color="#60D66A"/></linearGradient><linearGradient id="b" x1="14.502" y1="22.63" x2="14.502" y2="5.65" gradientUnits="userSpaceOnUse"><stop stop-color="#20B038"/><stop offset="1" stop-color="#60D66A"/></linearGradient><linearGradient id="c" x1="14.502" y1="22.934" x2="14.502" y2="5.345" gradientUnits="userSpaceOnUse"><stop stop-color="#F9F9F9"/><stop offset="1" stop-color="#fff"/></linearGradient></defs></svg>