<svg width="110" height="109" fill="none" xmlns="http://www.w3.org/2000/svg"><path d="M60.105 108.702c27.556 0 49.895-22.34 49.895-49.896S87.661 8.911 60.105 8.911c-27.557 0-49.896 22.339-49.896 49.895 0 27.557 22.34 49.896 49.896 49.896z" fill="#fff"/><path d="M8.688 52.602 7.63 50.996a2.948 2.948 0 0 0 1.817-2.04c.222-1.057-.348-1.976-1.87-2.283L0 45.13l.433-2.113 7.61 1.595a4.227 4.227 0 0 1 2.843 1.691 3.963 3.963 0 0 1 .412 3.055 4.428 4.428 0 0 1-2.61 3.245zM14.553 38.377l-1.057-.412a3.603 3.603 0 0 1 .106 3.17 2.842 2.842 0 0 1-3.71 1.882c-1.817-.74-2.113-2.505-1.342-4.418a7.672 7.672 0 0 1 1.268-2.114l-.158-.063c-1.131-.455-2.04 0-2.568 1.31a6.004 6.004 0 0 0-.444 2.558l-1.712-.106c-.07-1.16.129-2.321.58-3.392.984-2.431 2.738-3.087 4.926-2.199l4.862 1.977-.75 1.807zM11.14 36.94a5.76 5.76 0 0 0-1.056 1.743c-.476 1.184-.275 2.114.55 2.41.824.296 1.49-.211 1.849-1.057.507-1.247.19-2.462-.835-2.875l-.508-.221zM14.902 34.794l-.687-1.49a5.01 5.01 0 0 0 2.463-1.913c.465-.74.422-1.363-.106-1.691-.529-.328-1.205.254-1.966.92l-.127.105c-1.057.898-2.24 1.85-3.71.94-1.468-.908-1.542-2.61-.612-4.1a6.14 6.14 0 0 1 2.578-2.23l.793 1.448a5.21 5.21 0 0 0-2.03 1.67c-.422.666-.348 1.247.117 1.543.465.296 1.194-.264 1.976-.92l.138-.116c1.057-.877 2.293-1.797 3.667-.94 1.586.993 1.596 2.705.624 4.227a6.342 6.342 0 0 1-3.118 2.547zM14.014 21.784l1.427-1.427.951.951a3.17 3.17 0 0 1 .846-2.98 2.758 2.758 0 0 1 2.959-.74 3.615 3.615 0 0 1 1.057-3.17c1.363-1.353 3.054-1.311 4.576.232l3.974 4.016-1.437 1.427-3.54-3.583c-.984-.993-1.988-1.057-2.791-.275a1.913 1.913 0 0 0 .19 2.896l3.52 3.551-1.448 1.427-3.573-3.636c-.972-.982-1.987-1.056-2.79-.264a1.935 1.935 0 0 0 .212 2.896l3.498 3.54-1.438 1.427-6.193-6.288zM25.006 7.664l1.818-1.205 1.056 1.607-1.817 1.205-1.057-1.607zm1.881 2.695 1.691-1.162 4.883 7.398-1.691 1.12-4.883-7.356zM31.548 7.336l1.86-.866L34 7.706a3.17 3.17 0 0 1 1.839-2.59c1.796-.845 3.413-.126 4.301 1.745l2.4 5.083-1.84.867-2.113-4.545a1.859 1.859 0 0 0-2.695-1.183 1.986 1.986 0 0 0-.867 2.843l2.114 4.513-1.84.866-3.751-7.969zM42.804 7.136a4.398 4.398 0 0 1 3.075-5.517c2.738-.687 4.661 1.12 5.285 3.593 0 .127.095.454.105.56l-6.341 1.575A2.473 2.473 0 0 0 47.94 8.91a3.234 3.234 0 0 0 2.114-1.606l1.416.729a4.492 4.492 0 0 1-3.17 2.494 4.427 4.427 0 0 1-5.496-3.392zm6.214-2.167a2.315 2.315 0 0 0-2.748-1.723 2.399 2.399 0 0 0-1.66 2.78l4.408-1.057zM63.888 9.038V7.981a3.572 3.572 0 0 1-2.917 1.152 2.843 2.843 0 0 1-3.033-2.896c.085-1.955 1.649-2.832 3.71-2.748a7.218 7.218 0 0 1 2.43.476v-.17c0-1.225-.697-1.933-2.113-1.986a6.267 6.267 0 0 0-2.558.444L58.932.604a7.567 7.567 0 0 1 3.392-.592c2.674.074 3.847 1.501 3.847 3.9l-.222 5.285-2.06-.159zm.201-3.7a5.951 5.951 0 0 0-2.008-.443c-1.268-.053-2.05.444-2.114 1.332-.063.887.698 1.331 1.65 1.374 1.341.052 2.377-.656 2.43-1.765l.042-.497zM69.617.805l1.986.402-.39 1.955A3.17 3.17 0 0 1 74.71 1.66l-.423 2.114h-.116c-1.744-.349-3.17.539-3.657 2.843l-.666 3.297-1.987-.401 1.755-8.71zM75.049 6.396a4.714 4.714 0 1 1 2.748 5.971 4.629 4.629 0 0 1-2.748-5.971zm6.975 2.642a2.738 2.738 0 0 0-1.522-3.636 2.663 2.663 0 0 0-3.561 1.68 2.748 2.748 0 0 0 1.511 3.626 2.673 2.673 0 0 0 3.572-1.67zM88.81 7.083l1.67 1.215-.772 1.057a3.17 3.17 0 0 1 3.075.328 2.8 2.8 0 0 1 1.237 2.8 3.635 3.635 0 0 1 3.35.487c1.564 1.12 1.807 2.8.55 4.555l-3.287 4.597-1.66-1.183 2.939-4.09c.814-1.142.718-2.114-.201-2.801a1.914 1.914 0 0 0-2.822.676l-2.906 4.069-1.617-1.141 2.938-4.101c.792-1.12.697-2.114-.212-2.79a1.943 1.943 0 0 0-2.832.697l-2.949 4.08-1.649-1.184 5.147-7.271zM99.21 27.787l.834-.708a3.55 3.55 0 0 1-2.832-1.353c-1.057-1.279-1.321-3.012.063-4.227 1.385-1.216 3.171-.72 4.534.856a7.398 7.398 0 0 1 1.3 2.113l.127-.116c.941-.793.951-1.818 0-2.885a6.22 6.22 0 0 0-2.061-1.564l.877-1.48a7.603 7.603 0 0 1 2.748 2.114c1.702 1.997 1.48 3.857-.317 5.39l-3.963 3.35-1.31-1.49zm2.853-2.367a5.888 5.888 0 0 0-1.057-1.766c-.824-.972-1.712-1.204-2.389-.634-.676.571-.507 1.427.117 2.114a2.116 2.116 0 0 0 2.938.57l.391-.285z" fill="#000"/><path d="M60.105 102.371c24.06 0 43.564-19.504 43.564-43.565 0-24.06-19.504-43.564-43.564-43.564S16.54 34.746 16.54 58.806s19.505 43.565 43.565 43.565z" fill="#D1EAEE"/><path d="M60.105 96.05c20.57 0 37.244-16.674 37.244-37.244S80.674 21.562 60.105 21.562c-20.57 0-37.245 16.675-37.245 37.244 0 20.57 16.675 37.245 37.245 37.245z" fill="#B6DFE5"/><path d="M60.105 89.72c17.073 0 30.914-13.84 30.914-30.914 0-17.073-13.841-30.913-30.914-30.913S29.19 41.733 29.19 58.806 43.031 89.72 60.105 89.72z" fill="#99D3DB"/><path d="M60.105 83.4c13.582 0 24.593-11.01 24.593-24.594 0-13.582-11.01-24.593-24.593-24.593S35.51 45.223 35.51 58.806 46.522 83.4 60.105 83.4z" fill="#77C8D2"/><path d="M41.556 87.342a2.38 2.38 0 0 0-.919-.275 8.275 8.275 0 0 1-5.982-7.937v-3.265a1.226 1.226 0 0 1 1.31-1.364c.402 0 .941.18 1.174-.084.232-.265.084-.814.084-1.237V52.846a3.859 3.859 0 0 1 1.395-3.171 20.558 20.558 0 0 0 3.414-3.752 11.882 11.882 0 0 0 1.385-2.674c.148-.38.126-.56-.339-.697a3.952 3.952 0 0 1-2.79-3.763 4.027 4.027 0 0 1 2.727-3.762 9.868 9.868 0 0 1 2.843-.18c.76 0 .75 0 .634-.73-.275-1.722-.56-3.445-.824-5.167a1.194 1.194 0 0 1 1.247-1.448h10.23a1.057 1.057 0 0 1 1.237 1.32c-.211 1.67-.507 3.34-.76 5.01 0 .317-.107.645-.16 1.057h2.178a3.942 3.942 0 0 1 1.247 7.694c-.37.127-.328.296-.233.582a14.055 14.055 0 0 0 3.583 5.284c.476.486.962.972 1.47 1.416a3.33 3.33 0 0 1 1.183 2.685v7.123c0 .444.116.55.539.57.682.002 1.36.095 2.019.276.243.074.422.084.486-.265.55-3.308 2.61-5.76 4.724-8.148a2.577 2.577 0 0 1 3.942-.254 17.893 17.893 0 0 1 4.84 7.504c.117.402 0 .993.339 1.163.338.169.771-.127 1.173-.18 1.626-.187 3.27-.14 4.883.137.655.085 1.31.201 1.955.317a3.065 3.065 0 0 1 2.716 2.304v1.173a16.91 16.91 0 0 1-4.29 8.191 8.587 8.587 0 0 1-1.734 1.29c-.317.18-.36.338-.116.623a13.338 13.338 0 0 1 2.8 7.472c.064.603.096 1.205.19 1.797.055.35.055.707 0 1.057a2.632 2.632 0 0 1-2.472 2.61h-1.86a34.603 34.603 0 0 1-3.457-.401 10.569 10.569 0 0 1-6.468-3.73c-.232-.297-.39-.36-.666 0a10.748 10.748 0 0 1-6.859 3.867c-1.056.201-2.113.19-3.234.317l-24.784-.02z" fill="#010101"/><path d="M56.12 50.415c.074.93.476 1.3 1.427 1.31h6.077c.719 0 .867.138.867.846v7.398c0 .349 0 .507-.465.55-.889.093-1.77.237-2.642.433a2.736 2.736 0 0 0-2.188 3.826 20.24 20.24 0 0 0 3.297 6.7 9.216 9.216 0 0 0 2.875 2.347c.275.137.402.232.127.518a10.855 10.855 0 0 0-2.78 6.108 21.313 21.313 0 0 0-.412 4.344c0 .423-.285.233-.433.233h-8.667a8.719 8.719 0 0 0 2.199-3.826c.23-1.105.319-2.234.264-3.361v-1.987c0-.655-.402-1.29-1.057-1.3a26.313 26.313 0 0 0-5.284.159 7.6 7.6 0 0 0-3.837 1.965c-.264.243-.401.286-.687 0a7.536 7.536 0 0 0-4.64-2.113c-.517 0-.644-.233-.644-.74V52.687c0-.888.137-1.057 1.057-1.057h5.897c.94 0 1.279-.264 1.533-1.183.272-.144.584-.193.887-.138h1.892c.254 0 .254.264.307.444a.983.983 0 0 0 .898.708.972.972 0 0 0 .983-.57c.095-.18.158-.402.37-.497a20.496 20.496 0 0 1 2.78.02z" fill="#77C8D2"/><path d="M50.857 50.415c-.951.116-1.902 0-2.864 0-.254-.951-.529-1.163-1.511-1.173h-4.133c.36-.444.677-.825.973-1.205a12.947 12.947 0 0 0 2.547-4.989c.063-.285.18-.38.465-.38H57.78c.211 0 .338 0 .401.296a14.068 14.068 0 0 0 3.372 6.035l.095.137c-.106.2-.286.106-.412.106H57.44a1.174 1.174 0 0 0-1.32 1.056c-.286.244-.624.117-.952.127h-1.913c-.158-.063-.211-.211-.275-.348a.93.93 0 0 0-.877-.635.993.993 0 0 0-.983.582c-.063.19-.084.39-.264.39zM72.153 61.65a8.085 8.085 0 0 1 1.596-4.587c.764-1.112 1.6-2.17 2.505-3.171.285-.328.602-.476.93-.085a18.146 18.146 0 0 1 3.784 5.686c.94 2.79.084 5.221-1.544 7.494-.147.2-.264.137-.433 0a4.978 4.978 0 0 0-4.492 0c-.221.105-.338.105-.475-.106a8.793 8.793 0 0 1-1.87-5.232zM64.681 83.833c.094-1.793.41-3.568.94-5.284a7.398 7.398 0 0 1 2.558-3.509.804.804 0 0 1 .645-.2c1.234.168 2.486.168 3.72 0a.613.613 0 0 1 .613.21 4.808 4.808 0 0 0 2.79 1.449c.233 0 .36.084.317.348-.433 2.822-1.416 5.285-4.11 6.733a12.618 12.618 0 0 1-4.46 1.215 30.72 30.72 0 0 1-2.115.222c-.887.074-1.056-.074-.93-.983a.856.856 0 0 0 .032-.2zM87.954 84.996c-2.02-.1-4.017-.484-5.93-1.141a7.272 7.272 0 0 1-3.826-3.657 1.141 1.141 0 0 1-.073-.835c.26-.876.437-1.775.528-2.685a.792.792 0 0 1 .507-.75 2.21 2.21 0 0 0 .899-.634 1.394 1.394 0 0 1 1.437-.455c1.052.15 2.12.15 3.17 0a.791.791 0 0 1 .645.18 7.842 7.842 0 0 1 2.98 4.862c.284 1.395.474 2.807.571 4.227.085.761-.095.91-.908.888zM83.134 72.61c-.444 0-.993 0-1.3-.17-.306-.169 0-.782-.063-1.183a4.915 4.915 0 0 0-.592-2.114.497.497 0 0 1 0-.624 11.954 11.954 0 0 0 2.367-5.115c.053-.286.233-.36.476-.433a10.42 10.42 0 0 1 4.386-.286c.993.106 1.997.286 2.99.455.74.116.878.327.624 1.056a27.858 27.858 0 0 1-1.934 4.471 7.6 7.6 0 0 1-6.954 3.942zM66.34 62.611a9.51 9.51 0 0 1 3.171.391c.211.074.391.127.433.391a11.941 11.941 0 0 0 2.325 5.084.57.57 0 0 1 .064.708 4.45 4.45 0 0 0-.54 2.98c.064.317-.063.35-.316.37-3.108.317-5.74-.517-7.61-3.17a20.876 20.876 0 0 1-2.43-5.285c-.201-.57 0-.771.634-.887a32.317 32.317 0 0 1 4.27-.582z" fill="#fff"/><path d="M52.062 40.385H44.41a1.597 1.597 0 0 1-.785-3.077c.21-.077.435-.109.658-.094h15.473a1.606 1.606 0 0 1 1.649 1.353A1.628 1.628 0 0 1 60.4 40.3a2.812 2.812 0 0 1-.983.106l-7.356-.021z" fill="#77C8D2"/><path d="M53.32 78.57c0 3.076-1.427 5.21-3.985 6.13a12.97 12.97 0 0 1-3.931.306c-.17 0-.244-.073-.233-.243a12.967 12.967 0 0 1 .296-3.931 5.918 5.918 0 0 1 5.432-3.995h1.977c.39 0 .465.148.444.486-.022.338 0 .835 0 1.247z" fill="#6CBE99"/><path d="M38.544 76.837A6.087 6.087 0 0 1 43.28 78.4a.72.72 0 0 1 .233 1.057 9.016 9.016 0 0 0-.687 4.386c0 1.321 0 1.321-1.29 1.057a5.94 5.94 0 0 1-4.523-5.549v-1.987c0-.349.074-.507.444-.475.37.031.718-.053 1.088-.053z" fill="#81C185"/><path d="M52.02 29.827h3.392c.391 0 .455.127.402.465a219.115 219.115 0 0 0-.687 4.227c0 .254-.138.317-.37.317h-5.432a.329.329 0 0 1-.38-.274c-.233-1.48-.466-2.95-.709-4.429-.053-.338.17-.274.349-.274l3.435-.032z" fill="#DFE79D"/><path d="M76.74 68.868a2.661 2.661 0 0 1 2.695 2.684 2.684 2.684 0 1 1-5.358 0 2.663 2.663 0 0 1 2.663-2.684z" fill="#FCDE6B"/><path d="M50.857 50.415c.159-.74.518-1.057 1.12-1.12.603-.064 1.057.285 1.28 1.162-.297.983-.889 1.374-1.628 1.057a1.173 1.173 0 0 1-.772-1.1z" fill="#040402"/></svg>