<svg width="110" height="108" fill="none" xmlns="http://www.w3.org/2000/svg"><path d="M60.645 107.669c27.258 0 49.355-22.097 49.355-49.355 0-27.258-22.097-49.355-49.355-49.355-27.258 0-49.354 22.097-49.354 49.355 0 27.258 22.096 49.355 49.354 49.355z" fill="#fff"/><path d="m0 51.289.355-2.008 9.597 1.694 1.046-6.011 1.83.324-1.401 8.029L0 51.289zM15.2 38.974l-1.045-.387a3.575 3.575 0 0 1 .167 3.136 2.822 2.822 0 0 1-3.67 1.903c-1.808-.7-2.09-2.436-1.41-4.35a7.422 7.422 0 0 1 1.212-2.09l-.157-.063c-1.129-.439-2.017 0-2.519 1.338a6.105 6.105 0 0 0-.387 2.54l-1.693-.062a7.422 7.422 0 0 1 .512-3.377c.92-2.415 2.645-3.136 4.83-2.268l4.84 1.819-.68 1.86zm-3.397-1.338a5.454 5.454 0 0 0-1.046 1.756c-.45 1.17-.24 2.09.586 2.373.826.282 1.474-.24 1.809-1.119a2.09 2.09 0 0 0-.89-2.833l-.46-.178zM8.73 31.833l1.118-1.84 6.722 1.37-4.255-5.384 1.098-1.798 5.656 7.663-.941 1.537-9.399-1.548zM17.793 25.634a4.348 4.348 0 0 1-.543-6.273c1.86-2.09 4.432-1.662 6.272 0l.397.398-4.286 4.798a2.456 2.456 0 0 0 3.335-.397 3.208 3.208 0 0 0 .805-2.467l1.558-.178a4.411 4.411 0 0 1-1.087 3.826 4.359 4.359 0 0 1-6.45.293zm3.868-5.227a2.279 2.279 0 0 0-3.199.115 2.373 2.373 0 0 0 .199 3.23l3-3.345zM22.57 14.26l1.61-1.203.816 1.046a3.136 3.136 0 0 1 1.255-2.875c1.578-1.192 3.282-.826 4.516.805l3.345 4.443-1.6 1.296-2.99-3.972a1.83 1.83 0 0 0-2.78-.575 1.944 1.944 0 0 0-.272 2.916l3 3.9-1.599 1.212-5.3-6.993zM33.443 11.72c-1.233-2.625-.157-4.946 1.736-5.845a3.596 3.596 0 0 1 3.355.126l-2.007-4.266 1.809-.857 5.227 10.946-1.809.857-.627-1.317a3.502 3.502 0 0 1-1.997 2.76c-1.913.878-4.432.25-5.687-2.405zm6.409-3.022a2.633 2.633 0 0 0-3.492-1.453 2.583 2.583 0 0 0-1.045 3.648 2.592 2.592 0 0 0 3.47 1.454 2.643 2.643 0 0 0 1.067-3.649zM43.887 7.088a4.34 4.34 0 0 1 3.136-5.436c2.708-.659 4.59 1.14 5.227 3.586.045.182.077.367.095.554l-6.273 1.516a2.436 2.436 0 0 0 2.969 1.568 3.2 3.2 0 0 0 2.09-1.579l1.391.742a4.444 4.444 0 0 1-3.188 2.415 4.38 4.38 0 0 1-5.447-3.366zm6.158-2.09a2.28 2.28 0 0 0-2.708-1.715 2.373 2.373 0 0 0-1.662 2.77l4.37-1.056zM54.122.533l1.997-.146.146 1.965A3.137 3.137 0 0 1 59.203 0l.156 2.09h-.114c-1.757.126-2.896 1.36-2.719 3.68l.24 3.325-1.996.147-.648-8.709zM71.162 10.068l.188-1.046a3.533 3.533 0 0 1-3.01.732c-1.631-.293-2.907-1.485-2.583-3.24.325-1.757 1.987-2.562 3.994-2.196a7.58 7.58 0 0 1 2.32.784v-.157c.22-1.192-.417-1.986-1.787-2.227a5.98 5.98 0 0 0-2.561.094l-.251-1.683a7.58 7.58 0 0 1 3.44-.084c2.54.46 3.543 2.018 3.136 4.329l-.93 5.08-1.956-.386zm.69-3.597a5.665 5.665 0 0 0-1.902-.7c-1.244-.22-2.091.157-2.227 1.045-.136.889.502 1.38 1.474 1.547 1.307.23 2.425-.324 2.614-1.4l.041-.492zM77.864 2.77l1.892.67-.648 1.86a3.136 3.136 0 0 1 3.627-1.045l-.69 2.018h-.115c-1.662-.586-3.199.094-3.962 2.279l-1.045 3.136-1.903-.659 2.844-8.259zM82.118 8.855a4.673 4.673 0 1 1 1.914 6.272 4.568 4.568 0 0 1-1.914-6.272zm6.45 3.481a2.698 2.698 0 0 0-2.073-4.064 2.635 2.635 0 0 0-2.63 1.534 2.72 2.72 0 0 0 1.013 3.785 2.656 2.656 0 0 0 3.69-1.255zM94.915 10.925l1.463 1.348-.899.983a3.136 3.136 0 0 1 2.99.68 2.77 2.77 0 0 1 .889 2.895 3.585 3.585 0 0 1 3.23.868c1.411 1.286 1.453 2.959 0 4.537l-3.774 4.13-1.39-1.36 3.345-3.669c.941-1.045.972-2.017.136-2.77a1.896 1.896 0 0 0-2.27-.225 1.892 1.892 0 0 0-.584.56l-3.325 3.648-1.484-1.349 3.366-3.69c.92-1.046.94-2.018.126-2.76a1.914 1.914 0 0 0-2.865.355l-3.324 3.638-1.485-1.359 5.855-6.46zM102.557 32.2l.888-.607a3.536 3.536 0 0 1-2.634-1.642 2.827 2.827 0 0 1-.637-2.176 2.826 2.826 0 0 1 1.17-1.943c1.61-1.045 3.22-.355 4.359 1.339a7.446 7.446 0 0 1 1.046 2.216l.136-.094c1.045-.68 1.129-1.683.345-2.833a6.093 6.093 0 0 0-1.851-1.777l1.046-1.35a7.41 7.41 0 0 1 2.498 2.353c1.453 2.154 1.046 3.952-.909 5.227l-4.318 2.938-1.139-1.652zm3.063-2.008a5.699 5.699 0 0 0-.837-1.861c-.7-1.045-1.547-1.38-2.279-.889-.731.492-.648 1.349-.125 2.091a2.087 2.087 0 0 0 2.039 1.118c.274-.024.54-.102.784-.23l.418-.23z" fill="#000"/><path d="M60.645 101.407c23.8 0 43.093-19.293 43.093-43.093 0-23.8-19.293-43.092-43.093-43.092-23.799 0-43.092 19.293-43.092 43.092 0 23.8 19.293 43.093 43.092 43.093z" fill="#E0CBEF"/><path d="M60.645 95.155c20.347 0 36.841-16.494 36.841-36.84 0-20.348-16.494-36.842-36.84-36.842-20.347 0-36.842 16.494-36.842 36.841S40.3 95.155 60.645 95.155z" fill="#C5A1E1"/><path d="M60.645 88.893c16.889 0 30.58-13.69 30.58-30.579 0-16.888-13.691-30.579-30.58-30.579-16.888 0-30.579 13.69-30.579 30.579 0 16.888 13.691 30.579 30.58 30.579z" fill="#BB93DD"/><path d="M60.645 82.641c13.436 0 24.327-10.891 24.327-24.327 0-13.435-10.891-24.327-24.327-24.327-13.435 0-24.327 10.892-24.327 24.327 0 13.436 10.892 24.327 24.327 24.327z" fill="#A87DB6"/><path d="M38.399 38.576c-.628.272-.513.889-.586 1.36a7.057 7.057 0 0 0 1.223 5.227c.272.397.607.763.91 1.14a7.089 7.089 0 0 1-4.82-3.869 4.098 4.098 0 0 1-.428-1.579 2.028 2.028 0 0 1 1.578-2.174 3.762 3.762 0 0 1 2.123-.105z" fill="#A573B4"/><path d="M43.584 32h1.568a5.458 5.458 0 0 1 3.555 2.572c.47.68.45.69 1.15.272a6.45 6.45 0 0 1 2.686-.972.983.983 0 0 1 1.16.732c0 .815-.188 1.118-.972 1.265a5.98 5.98 0 0 0-3.502 2.09 10.79 10.79 0 0 0-1.986 6.88c0 .303.136.439.418.585a2.311 2.311 0 0 0 2.405-.178c.418-.261.899-.418 1.296-.71a8.3 8.3 0 0 0 3.293-3.42 6.073 6.073 0 0 0 .512-3.69c-.073-.533 0-1.045.523-1.296a1.045 1.045 0 0 1 1.443.857 7.171 7.171 0 0 1-.481 4.757 10.653 10.653 0 0 1-5.227 5.07c-1.046.544-.826.46-.314 1.224 0 .083.115.156.157.24.167.355.376.387.71.157a7.32 7.32 0 0 1 3.001-1.15 4.044 4.044 0 0 1 4.652 3.795c.314 3.293-1.16 5.77-3.617 7.778a11.732 11.732 0 0 1-2.614 1.589c-.365.156-.47.355-.167.669.303.313.345.763.69.867.345.105.659-.292.983-.46a6.42 6.42 0 0 1 3.136-.805 4.004 4.004 0 0 1 2.572.89c.22.177.397.313.69.083 1.6-1.318 3.345-1.182 5.133-.47.441.174.859.402 1.244.679.251.188.45.167.606-.126 0-.094.115-.188.178-.282.554-.815.565-.826-.366-1.275a12.178 12.178 0 0 1-4.182-3.387 4.537 4.537 0 0 1-.428-.67c-.345-.637-.282-.972.293-1.484.794-.178 1.045-.094 1.474.554a8.436 8.436 0 0 0 2.195 2.269 16.131 16.131 0 0 0 2.791 1.536c.722.325 1.276-.125 1.882-.303.167 0 .157-.24.157-.397a11.05 11.05 0 0 0-1.474-6.189 6.032 6.032 0 0 0-2.51-2.32 3.857 3.857 0 0 0-2.006-.513 1.798 1.798 0 0 0-1.84 1.317 3.142 3.142 0 0 0-.168.826 1.234 1.234 0 0 1-.92 1.223c-.72 0-1.045-.355-1.045-1.045a4.077 4.077 0 0 1 4.088-4.412 6.586 6.586 0 0 1 3.418 1.045c.586.356.586.356.941-.177.596-.9.585-.889-.397-1.412a10.632 10.632 0 0 1-5.008-4.986 7.13 7.13 0 0 1-.502-4.977 3.972 3.972 0 0 1 4.61-2.916 7.62 7.62 0 0 1 2.688 1.045c.627.356.637.377 1.045-.261a7.2 7.2 0 0 1 1.432-1.6 4.181 4.181 0 0 1 2.175-1.045h1.474c1.85.272 2.75 1.579 3.408 3.136.182.396.308.814.376 1.244.063.408.21.544.648.429a6.681 6.681 0 0 1 2.875-.115 4.11 4.11 0 0 1 3.283 5.635 8.604 8.604 0 0 1-5.551 5.52 12.942 12.942 0 0 1-3.43.773c-.344 0-.449.126-.365.491.272 1.213.261 1.213 1.463 1.046a6.415 6.415 0 0 1 2.321 0 4.015 4.015 0 0 1 3.356 4.934 7.893 7.893 0 0 1-4.088 5.458 12.084 12.084 0 0 1-5.08 1.505c-.377 0-.44.157-.345.502.324 1.191.303 1.17 1.568 1.045a5.153 5.153 0 0 1 4.495 1.202 3.366 3.366 0 0 1 1.119 2.698 1.045 1.045 0 0 0 .71 1.233 2.09 2.09 0 0 1 .868 2.823 34.135 34.135 0 0 1-2.09 3.826 45.58 45.58 0 0 1-7.852 9.357 28.882 28.882 0 0 1-4.37 3.44 2.853 2.853 0 0 0-.93.971 2.572 2.572 0 0 1-2.854 1.15 2.29 2.29 0 0 1-2.018-1.83 4.704 4.704 0 0 0-.784-1.64 37.132 37.132 0 0 1-3.774-6.597 1.36 1.36 0 0 0-.272-.45c-.177.094-.209.293-.282.45a37.798 37.798 0 0 1-3.983 6.868 3.042 3.042 0 0 0-.502 1.13 2.436 2.436 0 0 1-2.017 2.09 2.614 2.614 0 0 1-2.98-1.254 2.09 2.09 0 0 0-.732-.763 41.704 41.704 0 0 1-7.412-6.461 1.107 1.107 0 0 1-.178-1.62c.701-.47 1.13-.387 1.705.282a38.841 38.841 0 0 0 5.687 5.227.22.22 0 0 0 .125 0 5.227 5.227 0 0 0-1.045-2.896 45.998 45.998 0 0 0-5.227-6.931 41.817 41.817 0 0 0-5.614-5.102l-.095-.063c-.146-.073-.282-.282-.438-.135-.157.146 0 .313.083.46a38.93 38.93 0 0 0 3.649 5.948c.501.69.48 1.046-.084 1.652a1.045 1.045 0 0 1-1.453-.356 37.98 37.98 0 0 1-4.182-6.837 2.092 2.092 0 0 1 .993-2.791.952.952 0 0 0 .628-1.046 3.565 3.565 0 0 1 1.714-3.313 5.227 5.227 0 0 1 3.544-.764c.377.029.751.088 1.119.178.334.115.543 0 .596-.345a3.81 3.81 0 0 1 .198-.773c.126-.345 0-.471-.355-.502a12.013 12.013 0 0 1-5.07-1.516 7.86 7.86 0 0 1-4.057-5.353c-.638-3.136 1.547-5.018 4.182-5.143.742-.04 1.485.03 2.206.209.313.083.48 0 .575-.335.345-1.181.355-1.191-.837-1.37a11.165 11.165 0 0 1-5.53-2.205 7.768 7.768 0 0 1-2.948-4.652 4.12 4.12 0 0 1 4.108-5.102 7.74 7.74 0 0 1 2.196.178c.428.125.585 0 .658-.418.18-.898.535-1.75 1.046-2.51A3.932 3.932 0 0 1 43.584 32z" fill="#010101"/><path d="M43.061 80.195c-.47-.565-.93-1.14-1.39-1.715.418-.616.418-.846 0-1.463a39.104 39.104 0 0 1-3.837-6.126c-.073-.168-.282-.345 0-.555.282-.209.408 0 .575.136a42.35 42.35 0 0 1 11.866 13.664 6.2 6.2 0 0 1 .397 1.903 26.038 26.038 0 0 1-2.948-2.321 37.76 37.76 0 0 1-3.314-3.283c-.481-.533-.732-.564-1.349-.24z" fill="#91C471"/><path d="M53.62 34.635c.12.164.294.28.491.324a2.645 2.645 0 0 1 1.652 1.244.983.983 0 0 0-.46 1.046 6.094 6.094 0 0 1-1.463 5.394 7.736 7.736 0 0 1-2.415 1.997c-.272.073-.418-.126-.575-.282a7.455 7.455 0 0 1-1.987-5.76c.048-.24.133-.468.251-.68a5.75 5.75 0 0 1 3.523-2.175c.764-.136.952-.355.983-1.108z" fill="#B58BBE"/><path d="M71.288 85.987a6.273 6.273 0 0 1 1.045-3.137 43.29 43.29 0 0 1 10.988-12.19l.324-.23c.146-.104.282-.282.502-.125.22.157.073.376 0 .554A42.863 42.863 0 0 1 71.81 85.725c-.156.084-.292.262-.522.262zM55.805 85.119a5.824 5.824 0 0 1 0-3.628 43.185 43.185 0 0 1 6.074-15.043l.167-.24c.105-.168.22-.314.45-.21.23.105.167.261.146.44a38.812 38.812 0 0 1-.763 4.515 42.487 42.487 0 0 1-5.886 13.884l-.188.282z" fill="#9FCB81"/><path d="M81.115 39.517a5.573 5.573 0 0 1 4.338-.91 2.144 2.144 0 0 1 1.746 2.698 5.886 5.886 0 0 1-2.09 3.408 8.155 8.155 0 0 1-4.12 1.83 4.035 4.035 0 0 1-.815-2.091 7.549 7.549 0 0 1 .523-4.234c.108-.251.248-.487.418-.7zM51.425 51.519a5.331 5.331 0 0 1 3.763-2.384 2.154 2.154 0 0 1 2.614 2.248 6.69 6.69 0 0 1-2.593 5.697c-.394.382-.845.7-1.338.941-.282.105-.46 0-.638-.24a7.64 7.64 0 0 1-1.955-5.813c.03-.155.08-.306.147-.45zM78.825 52.878a5.604 5.604 0 0 1 4.182-.868 2.092 2.092 0 0 1 1.83 2.78 6.48 6.48 0 0 1-4.182 4.6 6.272 6.272 0 0 1-2.091.576A3.846 3.846 0 0 1 77.78 58a7.204 7.204 0 0 1 .376-4.119c.156-.374.383-.715.67-1.003zM66.06 63.123a6.627 6.627 0 0 1 3.241 3.785c.707 1.938.975 4.009.784 6.063 0 .22 0 .376-.334.293a13.829 13.829 0 0 1-4.736-2.3 4.276 4.276 0 0 1-.7-3.419l.136-1.453a5.165 5.165 0 0 1 1.191-2.77c.074-.136.2-.262.419-.199zM42.957 65.402a6.273 6.273 0 0 1 4.056 2.028 13.036 13.036 0 0 1 3.136 5.855c0 .156.115.282-.146.313-1.756.21-3.535.053-5.227-.46a5.311 5.311 0 0 1-2.091-3.073 6.795 6.795 0 0 1-.115-4.004c.073-.199.094-.533.387-.659zM40.646 52a6.492 6.492 0 0 1 4.328 2.415 12.408 12.408 0 0 1 2.489 4.453c.104.303 0 .366-.21.565-1.045 1.212-2.383.784-3.67.606a3.46 3.46 0 0 1-1.243-.314 4.6 4.6 0 0 1-1.788-2.352 6.816 6.816 0 0 1-.366-4.767c.074-.24.074-.586.46-.606zM70.671 36.224a6.566 6.566 0 0 1 3.335 3.722c.663 1.659.956 3.443.857 5.227 0 .188 0 .345-.25.366-.428.064-.841.198-1.224.397a.376.376 0 0 1-.366 0 11.688 11.688 0 0 1-3.261-1.746 4.996 4.996 0 0 1-.89-3.261 6.9 6.9 0 0 1 1.193-4.015c.177-.324.292-.575.606-.69zM68.444 49.72a6.576 6.576 0 0 1 3.2 3.649 11.97 11.97 0 0 1 .836 5.227c0 .115 0 .303-.074.303-.731 0-1.317.722-2.09.314a15.686 15.686 0 0 1-2.886-1.63 3.91 3.91 0 0 1-.868-2.175 7.412 7.412 0 0 1 1.119-5.05c.178-.334.324-.68.763-.637zM38.399 38.576c1.302.16 2.517.74 3.46 1.652a11.876 11.876 0 0 1 3.251 5.227c.084.251.063.387-.177.481-1.046 1.171-2.3.837-3.555.648-.49-.065-.975-.16-1.453-.282a5.3 5.3 0 0 1-1.892-2.676 7.067 7.067 0 0 1-.199-4.454c.052-.282.063-.69.565-.596zM76.327 66.385a5.73 5.73 0 0 1 4.286-.962 2.184 2.184 0 0 1 1.83 2.843c-.115.7-.488 1.33-1.046 1.767-.91.67-1.767 1.412-2.561 2.216a4.056 4.056 0 0 1-2.551 1.14 3.806 3.806 0 0 1-.795-2.09 7.601 7.601 0 0 1 .335-3.806c.112-.392.281-.765.502-1.108zM53.84 64.921a5.426 5.426 0 0 1 3.857-2.352c1.736-.199 2.394 1.045 2.53 2.248a2.592 2.592 0 0 1-.418 1.819 20.443 20.443 0 0 0-1.641 2.958 4.12 4.12 0 0 1-2.018 1.955.846.846 0 0 1-.502-.345 7.518 7.518 0 0 1-1.913-5.854c.018-.147.053-.29.105-.429z" fill="#B58BBE"/><path d="M45.58 42.162c-.428-.606-.794-1.17-1.191-1.704a9.607 9.607 0 0 0-2.457-2.32.586.586 0 0 1-.314-.639 5.092 5.092 0 0 1 1.234-3 1.977 1.977 0 0 1 2.656-.45 5.3 5.3 0 0 1 2.226 2.541.408.408 0 0 1-.073.47 11.5 11.5 0 0 0-2.08 5.102zM76.379 42.152a11.626 11.626 0 0 0-2.09-5.092c-.105-.125-.22-.25-.126-.45a5.123 5.123 0 0 1 2.624-2.77 1.871 1.871 0 0 1 2.09.44c.9.908 1.414 2.13 1.433 3.408 0 .177-.063.261-.199.355a11.406 11.406 0 0 0-3.596 3.93l-.136.179zM50.254 68.998a12.127 12.127 0 0 0-2.823-3.418 1.932 1.932 0 0 0-.408-.314c-.68-.293-.773-.794-.606-1.464.177-.91.583-1.759 1.181-2.467a1.997 1.997 0 0 1 2.614-.45 5.29 5.29 0 0 1 2.258 2.583.324.324 0 0 1 0 .397 11.113 11.113 0 0 0-2.09 4.966s-.064.063-.126.167zM71.654 68.998c-.094-.418-.147-.773-.24-1.14a10.924 10.924 0 0 0-1.82-3.92c-.084-.114-.198-.209-.157-.397a5.102 5.102 0 0 1 2.896-2.906 2.143 2.143 0 0 1 2.321 1.045c.56.84.894 1.807.972 2.813a.398.398 0 0 1-.209.418 11.123 11.123 0 0 0-3.617 3.92l-.146.167z" fill="#A573B4"/><path d="M74.006 55.596a11.5 11.5 0 0 0-2.09-5.154c-.074-.105-.179-.199-.095-.355a4.975 4.975 0 0 1 2.812-2.855 1.82 1.82 0 0 1 1.882.45 5.227 5.227 0 0 1 1.495 3.45c0 .178-.094.261-.23.355a11.28 11.28 0 0 0-3.607 3.92c-.05.069-.106.132-.167.189z" fill="#B58BBE"/><path d="M47.943 55.659a14.022 14.022 0 0 0-2.09-2.781 11.05 11.05 0 0 0-1.61-1.338c-.147-.094-.346-.157-.325-.408a5.729 5.729 0 0 1 1.046-3 2.153 2.153 0 0 1 3.356-.366 5.845 5.845 0 0 1 1.704 2.164.44.44 0 0 1 0 .512 11.353 11.353 0 0 0-2.08 5.217z" fill="#A573B4"/><path d="M66.207 85.202a42.098 42.098 0 0 1-4.004-7.516 2.027 2.027 0 0 1 0-1.6c.418-1.17.753-2.373 1.15-3.606a35.225 35.225 0 0 1 1.432 3.68 38.562 38.562 0 0 1 1.704 7.014 7.62 7.62 0 0 1-.282 2.028z" fill="#91C471"/><path d="M54.404 87.544a.878.878 0 0 1-.753.952c-.46 0-.846-.283-.951-.858-.199-1.15-.387-2.31-.596-3.46-.46-2.655-.92-5.31-1.4-7.966-.157-.878-.178-.878.668-1.046.847-.167.826-.156.983.711l2.007 11.26c.021.156.032.303.042.407zM67.566 87.43c.188-1.109.397-2.332.617-3.566.48-2.71.958-5.422 1.432-8.133.136-.742.115-.753.847-.596.94.199.94.199.773 1.17a3481.74 3481.74 0 0 0-1.965 11.26c-.104.606-.47.972-.94.93-.471-.041-.785-.418-.764-1.066z" fill="#83BE5E"/><path d="M68.423 49.71a3.91 3.91 0 0 0-1.317 2.018 7.402 7.402 0 0 0 .23 5.833 7.077 7.077 0 0 1-2.133-2.153 1.046 1.046 0 0 0-1.359-.607 9.127 9.127 0 0 1-.502-2.174 1.14 1.14 0 0 0 .826-1.14 2.248 2.248 0 0 1 3.063-2.216c.424.064.83.213 1.192.44zM70.65 36.203a10.578 10.578 0 0 0-1.255 2.321 7.517 7.517 0 0 0 .346 5.614 7.057 7.057 0 0 1-3.241-5.363 4.069 4.069 0 0 1 .094-1.286 2.215 2.215 0 0 1 3.021-1.704c.373.057.728.2 1.035.418zM40.646 52a4.861 4.861 0 0 0-.533 3.136c.181 1.74.97 3.362 2.227 4.579a6.796 6.796 0 0 1-5.05-4.422c-.637-1.861.136-3.137 2.091-3.377.422-.089.86-.06 1.265.084zM76.316 66.395c-.115.659-.491 1.223-.617 1.871a7.768 7.768 0 0 0 .314 4.496c.084.209.146.428.22.638a12.125 12.125 0 0 1-4.475.177 12.222 12.222 0 0 1 4.307-7.046l.251-.136zM53.808 64.931a12.544 12.544 0 0 0 .251 3.241 8.625 8.625 0 0 0 2.039 3.398 13.788 13.788 0 0 1-3.868 1.662c-.168 0-.314 0-.324-.177-.136-2.886.02-5.709 1.902-8.124zM49.156 37.918a7.224 7.224 0 0 0 1.997 6.481c.1.086.205.167.313.24-.777.525-1.62.943-2.509 1.245a.429.429 0 0 1-.418 0c-.125-.073-.272-.115-.407-.178-.314-.167-.826 0-.973-.345a2.73 2.73 0 0 1 0-1.17 10.173 10.173 0 0 1 1.997-6.273zM78.815 52.878a8.477 8.477 0 0 0-.972 3.324 7.317 7.317 0 0 0 .637 3.387l.126.366a9.726 9.726 0 0 1-2.687.293c-.376 0-.544-.376-.805-.575-.732-.544-.721-.554-.397-1.422a10.705 10.705 0 0 1 3.857-5.227c.077-.055.157-.104.24-.146zM51.425 51.519c-.04 1.051.04 2.103.24 3.136a8.27 8.27 0 0 0 1.777 3.136c.11.132.268.215.44.23a11.76 11.76 0 0 1-2.562 1.286c-.334.136-.523-.136-.784-.198-.261-.063-.847-.115-.962-.325a2.948 2.948 0 0 1-.073-1.223 10.81 10.81 0 0 1 1.61-5.687c.084-.104.199-.23.314-.355zM81.104 39.496c-.366.879-.639 1.793-.815 2.729a7.465 7.465 0 0 0 .596 3.993c0 .105.073.21.104.314-.88.209-1.782.304-2.686.282-.345 0-.481-.282-.68-.46-.199-.177-.763-.324-.794-.637a2.55 2.55 0 0 1 .334-1.119 11.05 11.05 0 0 1 3.534-4.872c.115-.062.261-.136.407-.23zM42.915 65.412a6.963 6.963 0 0 0 1.443 7.319l.365.428a2.018 2.018 0 0 1-1.233-.606c-.993-1.046-2.091-1.871-3.137-2.76a2.738 2.738 0 0 1-.794-2.802 1.976 1.976 0 0 1 1.756-1.547 2.76 2.76 0 0 1 1.6-.032zM66.06 63.133a5.614 5.614 0 0 0-1.547 2.729l-.104.25a2.092 2.092 0 0 0-2.478-1.87 2.09 2.09 0 0 1 2.635-1.631c.535.04 1.05.22 1.495.522z" fill="#A573B4"/><path d="M64.273 67.556a7.579 7.579 0 0 0 .742 3.429 1.726 1.726 0 0 1-.93-2.091c.073-.44.104-.889.188-1.338z" fill="#B498C6"/></svg>