<svg width="60" height="43" fill="none" xmlns="http://www.w3.org/2000/svg"><path d="M14.092 20.402c2.49.293 4.516 1.319 6.079 3.076 1.562 1.71 2.344 3.736 2.344 6.08 0 3.32-1.367 6.274-4.102 8.862-2.686 2.588-5.664 3.882-8.935 3.882-2.784 0-4.957-.977-6.519-2.93C1.396 37.42.615 34.685.615 31.17c0-5.567 2.466-12.012 7.398-19.336C12.993 4.46 17.266.773 20.83.773c1.172 0 2.222.44 3.15 1.319.927.83 1.391 1.782 1.391 2.856 0 1.416-.317 2.588-.952 3.516-.635.879-1.978 2.05-4.028 3.515-2.979 2.149-5.078 4.957-6.3 8.423zm34.497 0c2.49.293 4.517 1.319 6.079 3.076 1.563 1.71 2.344 3.736 2.344 6.08 0 3.32-1.367 6.274-4.102 8.862-2.685 2.588-5.664 3.882-8.935 3.882-2.784 0-4.956-.977-6.519-2.93-1.562-1.953-2.344-4.687-2.344-8.203 0-2.979.928-6.69 2.783-11.133 1.905-4.492 4.64-8.813 8.204-12.964 3.613-4.199 6.69-6.299 9.228-6.299 1.172 0 2.222.44 3.15 1.319.927.83 1.391 1.782 1.391 2.856 0 1.612-.39 2.881-1.172 3.809-.781.879-2.05 1.953-3.808 3.223-2.979 2.148-5.078 4.956-6.3 8.422z" fill="#000"/></svg>