<svg id="Слой_1" data-name="Слой 1" xmlns="http://www.w3.org/2000/svg" viewBox="0 0 29 29"><defs><style>.cls-1{fill:#fff;}</style></defs><path class="cls-1" d="M14.5,0A14.5,14.5,0,1,0,29,14.5,14.5,14.5,0,0,0,14.5,0Zm8.38,8.33c-.1,1.64-3.14,13.89-3.14,13.89a1,1,0,0,1-.84.74,1.21,1.21,0,0,1-.87-.33c-.69-.59-2.28-1.72-3.76-2.75C13.82,20.26,12.93,21,12,22c-1.31,1.31-1.14,0-1.14,0l.4-4.27h0l.05-.08S19,10.76,19.24,10c0-.06,0-.08-.13-.06-.51.19-9.38,5.79-10.36,6.41-.06,0-.22,0-.22,0L4.22,15s-.51-.21-.34-.68c0-.1.1-.18.3-.32,1-.67,17.66-6.67,17.66-6.67a1.48,1.48,0,0,1,.75-.06.42.42,0,0,1,.28.3,1.29,1.29,0,0,1,0,.38C22.91,8.07,22.89,8.17,22.88,8.33Z"/></svg>