<svg id="Слой_1" data-name="Слой 1" xmlns="http://www.w3.org/2000/svg" viewBox="0 0 29 29"><defs><style>.cls-1{fill:#fff;}</style></defs><path class="cls-1" d="M14.5,0A14.5,14.5,0,1,0,29,14.5,14.5,14.5,0,0,0,14.5,0ZM15,23.4h0a9.17,9.17,0,0,1-4.39-1.11L5.69,23.56,7,18.8a9.2,9.2,0,1,1,8,4.6Z"/><path class="cls-1" d="M15,6.56A7.65,7.65,0,0,0,8.49,18.27l.18.29L7.9,21.38l2.89-.76.28.17A7.71,7.71,0,0,0,15,21.85h0A7.65,7.65,0,1,0,15,6.56Zm4.5,10.93a2.4,2.4,0,0,1-1.55,1.09,3.21,3.21,0,0,1-1.45-.09c-.33-.11-.76-.25-1.31-.48a10.34,10.34,0,0,1-3.93-3.47,4.55,4.55,0,0,1-.94-2.38,2.59,2.59,0,0,1,.81-1.92.83.83,0,0,1,.61-.28h.44c.14,0,.33-.05.52.4s.65,1.59.71,1.7a.45.45,0,0,1,0,.41,1.83,1.83,0,0,1-.23.38c-.12.13-.24.3-.35.4s-.23.24-.1.47A7.24,7.24,0,0,0,14,15.31a6,6,0,0,0,1.85,1.14c.23.12.36.1.5-.05s.57-.68.72-.91.31-.19.52-.11,1.34.63,1.57.75.38.17.44.27A1.89,1.89,0,0,1,19.47,17.49Z"/></svg>