<svg id="Слой_1" data-name="Слой 1" xmlns="http://www.w3.org/2000/svg" viewBox="0 0 250 137"><defs><style>.cls-1{fill:#fff;}</style></defs><rect class="cls-1" width="250" height="137" rx="58"/><path d="M67.34,49.57v16.1H65.09V51.57H55.75v14.1H53.47V49.57Z"/><path d="M83.56,51.07a5.62,5.62,0,0,1,0,8.23,7.46,7.46,0,0,1-4.93,1.5h-4v4.87h-2.3V49.57h6.27A7.46,7.46,0,0,1,83.56,51.07Zm-1.66,6.8a3.7,3.7,0,0,0,0-5.36,5.2,5.2,0,0,0-3.33-.94H74.66V58.8h3.91A5.2,5.2,0,0,0,81.9,57.87Z"/><path d="M88.55,49.57h2.27V62l9.53-12.42h2.11v16.1h-2.25V53.28L90.66,65.67H88.55Z"/><path d="M119.28,49.57v16.1H117V61h-4.44L112,61l-3.22,4.71H106.3l3.57-5.1a5.12,5.12,0,0,1-2.65-1.92,5.7,5.7,0,0,1-.92-3.28,5.38,5.38,0,0,1,1.76-4.27,7,7,0,0,1,4.75-1.53Zm-9.61,8.53a4.49,4.49,0,0,0,3.1.95H117V51.57H112.9a4.69,4.69,0,0,0-3.17,1,3.53,3.53,0,0,0-1.1,2.81A3.57,3.57,0,0,0,109.67,58.1Z"/><path d="M135.35,51.57h-5.52v14.1h-2.25V51.57h-5.5v-2h13.27Z"/><path d="M152,49.57v16.1h-2.29V58.5h-9.25v7.17h-2.3V49.57h2.3V56.5h9.25V49.57Z"/><path d="M168.48,56.47a4.7,4.7,0,0,1,1.53,3.8,5,5,0,0,1-1.64,4,7.14,7.14,0,0,1-4.7,1.38H157V49.57h2.28v5.62h4.78A6.69,6.69,0,0,1,168.48,56.47ZM166.64,63a3.26,3.26,0,0,0,1.07-2.64c0-2.2-1.38-3.31-4.14-3.31H159.3v6.86h4.27A4.63,4.63,0,0,0,166.64,63Zm5.93-13.38h2.27v16.1h-2.27Z"/><path d="M179.86,49.57h2.27V62l9.53-12.42h2.11v16.1h-2.25V53.28L182,65.67h-2.11Zm4-1.94a2.88,2.88,0,0,1-1.05-2.33h1.64a1.73,1.73,0,0,0,.63,1.39,3.12,3.12,0,0,0,3.36,0,1.72,1.72,0,0,0,.65-1.39h1.61a2.87,2.87,0,0,1-1,2.32,4.52,4.52,0,0,1-2.89.83A4.58,4.58,0,0,1,183.87,47.63Z"/><path d="M86.68,89.25H78.13l-1.77,4H74l7.29-16.1h2.28l7.31,16.1H88.46Zm-.8-1.84-3.47-7.89-3.48,7.89Z"/><path d="M104.85,78.67a5.6,5.6,0,0,1,0,8.23,7.42,7.42,0,0,1-4.92,1.5H96v4.87h-2.3V77.17h6.28A7.42,7.42,0,0,1,104.85,78.67Zm-1.65,6.79a3.69,3.69,0,0,0,0-5.35,5.21,5.21,0,0,0-3.34-.94H96V86.4h3.91A5.15,5.15,0,0,0,103.2,85.46Z"/><path d="M112.93,92.39a7.88,7.88,0,0,1-3.07-3,8.47,8.47,0,0,1,0-8.42,7.85,7.85,0,0,1,3.07-3,9.5,9.5,0,0,1,8.76,0A7.87,7.87,0,0,1,124.75,81a8.64,8.64,0,0,1,0,8.44,8,8,0,0,1-3.06,3,9.5,9.5,0,0,1-8.76,0Zm7.58-1.78a6,6,0,0,0,2.23-2.22,6.59,6.59,0,0,0,0-6.33,6,6,0,0,0-2.23-2.22,6.33,6.33,0,0,0-3.19-.8,6.43,6.43,0,0,0-3.21.8,5.85,5.85,0,0,0-2.25,2.22,6.52,6.52,0,0,0,0,6.33,5.85,5.85,0,0,0,2.25,2.22,6.53,6.53,0,0,0,3.21.8A6.43,6.43,0,0,0,120.51,90.61Z"/><path d="M144.51,93.27l0-11.73-5.82,9.78h-1l-5.82-9.71V93.27h-2.21V77.17h1.88l6.72,11.32,6.62-11.32h1.89l0,16.1Z"/><path d="M162.19,89.25h-8.55l-1.77,4H149.5l7.29-16.1h2.28l7.31,16.1H164Zm-.8-1.84-3.47-7.89-3.48,7.89Z"/><path d="M179.42,79.17H173.9v14.1h-2.25V79.17h-5.5v-2h13.27Z"/></svg>