<svg id="Слой_1" data-name="Слой 1" xmlns="http://www.w3.org/2000/svg" viewBox="0 0 250 137"><defs><style>.cls-1{fill:#fff;}</style></defs><rect class="cls-1" width="250" height="137" rx="58"/><path d="M55.5,47.43a7.85,7.85,0,0,1-3.07-3,8.47,8.47,0,0,1,0-8.42,7.81,7.81,0,0,1,3.07-3,9.5,9.5,0,0,1,8.76,0,7.89,7.89,0,0,1,3.06,2.95,8.64,8.64,0,0,1,0,8.44,7.87,7.87,0,0,1-3.06,2.94,9.5,9.5,0,0,1-8.76,0Zm7.57-1.78a6,6,0,0,0,2.24-2.22,6.59,6.59,0,0,0,0-6.33,6,6,0,0,0-2.24-2.22,6.36,6.36,0,0,0-3.18-.8,6.53,6.53,0,0,0-3.21.8,5.85,5.85,0,0,0-2.25,2.22,6.52,6.52,0,0,0,0,6.33,5.85,5.85,0,0,0,2.25,2.22,6.43,6.43,0,0,0,3.21.8A6.26,6.26,0,0,0,63.07,45.65Z"/><path d="M77.76,41.23H74.4v7.09H72.15V32.22H74.4v7h3.41l5.06-7h2.46L79.58,40l6,8.31H83Z"/><path d="M98.21,44.29H89.65l-1.77,4H85.51l7.29-16.1h2.28l7.31,16.1H100Zm-.81-1.84-3.47-7.89-3.47,7.89Z"/><path d="M115.25,41.36a3.91,3.91,0,0,1-.06,4.94,5.68,5.68,0,0,1-2.41,1.64,9.45,9.45,0,0,1-3.28.56,11,11,0,0,1-3.2-.48,9.62,9.62,0,0,1-2.9-1.45l.81-1.7a7.45,7.45,0,0,0,2.37,1.24,8.87,8.87,0,0,0,2.64.41,6.1,6.1,0,0,0,3.25-.81,2.55,2.55,0,0,0,1.31-2.25,2.11,2.11,0,0,0-1-1.87,5,5,0,0,0-2.78-.66h-3.59V39.07h3.42a4,4,0,0,0,2.41-.63,2.07,2.07,0,0,0,.86-1.76,2.27,2.27,0,0,0-1.13-2,5.11,5.11,0,0,0-2.85-.74,8.78,8.78,0,0,0-2.29.32,8.56,8.56,0,0,0-2.19,1l-.74-1.89a10.31,10.31,0,0,1,2.58-1A11,11,0,0,1,109.2,32a9,9,0,0,1,3.13.53A5.23,5.23,0,0,1,114.59,34a3.62,3.62,0,0,1,.84,2.37,3.46,3.46,0,0,1-.68,2.14,4.09,4.09,0,0,1-1.87,1.38A4.59,4.59,0,0,1,115.25,41.36Z"/><path d="M131.41,39.12a4.66,4.66,0,0,1,1.53,3.79,5,5,0,0,1-1.65,4,7.1,7.1,0,0,1-4.7,1.38h-6.65V32.22h2.28v5.61H127A6.67,6.67,0,0,1,131.41,39.12Zm-1.84,6.47A3.26,3.26,0,0,0,130.64,43q0-3.32-4.14-3.31h-4.28V46.5h4.28A4.61,4.61,0,0,0,129.57,45.59Zm5.92-13.37h2.28v16.1h-2.28Z"/><path d="M155.28,41.36a4.26,4.26,0,0,1-.69,5.81,7.36,7.36,0,0,1-4.45,1.15h-7.36V32.22h6.92a6.9,6.9,0,0,1,4.13,1.07,3.55,3.55,0,0,1,1.49,3.07,3.75,3.75,0,0,1-.66,2.23A4,4,0,0,1,152.81,40,4.43,4.43,0,0,1,155.28,41.36ZM145.06,39.3h4.48a4.19,4.19,0,0,0,2.57-.67,2.28,2.28,0,0,0,.88-2,2.33,2.33,0,0,0-.89-2,4.19,4.19,0,0,0-2.56-.68h-4.48Zm8.74,4.44a2.33,2.33,0,0,0-.93-2,4.9,4.9,0,0,0-2.78-.65h-5V46.5h5Q153.8,46.5,153.8,43.74Z"/><path d="M170.43,44.29h-8.56l-1.77,4h-2.37L165,32.22h2.28l7.31,16.1H172.2Zm-.81-1.84-3.47-7.89-3.47,7.89Z"/><path d="M189.08,46.32v2H177.4V32.22h11.36v2H179.7v4.94h8.07v2H179.7v5.2Z"/><path d="M203.75,34.22h-5.52v14.1H196V34.22h-5.5v-2h13.27Z"/><path d="M58.88,75.92l0-11.73L53,74H52l-5.82-9.71V75.92H44V59.82h1.89l6.71,11.31,6.63-11.31h1.88l0,16.1Z"/><path d="M76.56,71.89H68l-1.77,4H63.87l7.29-16.1h2.28l7.31,16.1H78.33Zm-.8-1.84-3.47-7.89-3.48,7.89Z"/><path d="M86.14,75a7.81,7.81,0,0,1-3-2.94,8.58,8.58,0,0,1,0-8.44,7.87,7.87,0,0,1,3.05-2.95,9,9,0,0,1,4.37-1.07,9.22,9.22,0,0,1,3.46.63,7.09,7.09,0,0,1,2.66,1.88l-1.49,1.45a6,6,0,0,0-4.53-1.91,6.66,6.66,0,0,0-3.25.8,5.88,5.88,0,0,0-2.26,2.22,6.52,6.52,0,0,0,0,6.33,5.88,5.88,0,0,0,2.26,2.22,6.55,6.55,0,0,0,3.25.8,6,6,0,0,0,4.53-1.93l1.49,1.45A7.11,7.11,0,0,1,94,75.46a9,9,0,0,1-3.46.64A8.94,8.94,0,0,1,86.14,75Z"/><path d="M102.31,75a7.91,7.91,0,0,1-3-2.94,8.64,8.64,0,0,1,0-8.44,8,8,0,0,1,3.06-2.95,9,9,0,0,1,4.37-1.07,9.13,9.13,0,0,1,3.45.63,7,7,0,0,1,2.67,1.88l-1.49,1.45a6,6,0,0,0-4.53-1.91,6.66,6.66,0,0,0-3.25.8,5.88,5.88,0,0,0-2.26,2.22,6.52,6.52,0,0,0,0,6.33,5.88,5.88,0,0,0,2.26,2.22,6.55,6.55,0,0,0,3.25.8,6,6,0,0,0,4.53-1.93l1.49,1.45a7.11,7.11,0,0,1-2.68,1.89,9,9,0,0,1-3.46.64A8.94,8.94,0,0,1,102.31,75Z"/><path d="M126.06,71.89H117.5l-1.77,4h-2.37l7.29-16.1h2.28l7.32,16.1h-2.42Zm-.81-1.84-3.47-7.89-3.47,7.89Z"/><path d="M145.79,68.83h-3.06v7.09h-2.25V68.83H137.4l-4.51,7.09H130.2l5.31-8.38-4.92-7.72h2.46l4.3,7h3.13v-7h2.25v7h3.09l4.32-7h2.46l-4.92,7.77L153,75.92H150.3Z"/><path d="M169.25,59.82v16.1H167V68.74h-9.24v7.18h-2.3V59.82h2.3v6.92H167V59.82Z"/><path d="M177.12,75a7.92,7.92,0,0,1-3.07-3,8.47,8.47,0,0,1,0-8.42,7.94,7.94,0,0,1,3.07-3,9.5,9.5,0,0,1,8.76,0,7.83,7.83,0,0,1,3.06,2.95,8.58,8.58,0,0,1,0,8.44A7.73,7.73,0,0,1,185.88,75a9.5,9.5,0,0,1-8.76,0Zm7.58-1.78A6,6,0,0,0,186.93,71a6.52,6.52,0,0,0,0-6.33,6,6,0,0,0-2.23-2.22,6.43,6.43,0,0,0-3.19-.8,6.53,6.53,0,0,0-3.21.8,5.92,5.92,0,0,0-2.25,2.22,6.52,6.52,0,0,0,0,6.33,5.92,5.92,0,0,0,2.25,2.22,6.43,6.43,0,0,0,3.21.8A6.33,6.33,0,0,0,184.7,73.25Z"/><path d="M205.46,73.92v2H193.77V59.82h11.36v2h-9.06v4.94h8.07v2h-8.07v5.2Z"/><path d="M77.78,101.51V107H75.64v-3.51H62.4l0,3.51H60.23l0-5.52H61c1-.06,1.72-.86,2.14-2.4a31,31,0,0,0,.76-6.52l.16-5.17H75.41v14.09ZM65.42,98.43a5.43,5.43,0,0,1-1.37,3.08h9.09V89.42H66.08L66,92.8A38.49,38.49,0,0,1,65.42,98.43Z"/><path d="M92.62,101.51v2H80.93V87.42H92.3v2H83.23v4.94h8.08v2H83.23v5.19Z"/><path d="M96.23,87.42h2.28V99.84L108,87.42h2.11v16.1h-2.25V91.12l-9.55,12.4H96.23Zm4-2a2.85,2.85,0,0,1-1-2.33h1.63a1.72,1.72,0,0,0,.63,1.39,3.12,3.12,0,0,0,3.36,0,1.71,1.71,0,0,0,.65-1.39h1.61a2.87,2.87,0,0,1-1,2.32,5.51,5.51,0,0,1-5.8,0Z"/><path d="M118,102.63a7.84,7.84,0,0,1-3-2.94,8.64,8.64,0,0,1,0-8.44,7.89,7.89,0,0,1,3.06-3,9,9,0,0,1,4.37-1.07,9.13,9.13,0,0,1,3.45.63,7.21,7.21,0,0,1,2.67,1.88L127,91.19a6,6,0,0,0-4.53-1.91,6.59,6.59,0,0,0-3.24.8A5.91,5.91,0,0,0,117,92.3a6.59,6.59,0,0,0,0,6.33,5.91,5.91,0,0,0,2.27,2.22,6.59,6.59,0,0,0,3.24.8A6,6,0,0,0,127,99.72l1.5,1.45a7.19,7.19,0,0,1-2.68,1.89,9.07,9.07,0,0,1-3.46.64A8.91,8.91,0,0,1,118,102.63Z"/><path d="M142.55,89.42H137v14.1h-2.25V89.42h-5.5v-2h13.27Z"/><path d="M157.86,96.56a4.26,4.26,0,0,1-.69,5.81,7.38,7.38,0,0,1-4.45,1.15h-7.36V87.42h6.92a6.92,6.92,0,0,1,4.13,1.07,3.54,3.54,0,0,1,1.48,3.07,3.81,3.81,0,0,1-.65,2.23,4,4,0,0,1-1.86,1.38A4.46,4.46,0,0,1,157.86,96.56ZM147.63,94.5h4.49a4.16,4.16,0,0,0,2.56-.67,2.28,2.28,0,0,0,.89-2,2.31,2.31,0,0,0-.9-2,4.18,4.18,0,0,0-2.55-.68h-4.49Zm8.74,4.44a2.33,2.33,0,0,0-.93-2,4.86,4.86,0,0,0-2.77-.65h-5v5.45h5Q156.38,101.7,156.37,98.94Z"/><path d="M162.54,87.42h2.27V99.84l9.53-12.42h2.11v16.1H174.2V91.12l-9.55,12.4h-2.11Z"/><path d="M193.15,101.51v2H181.47V87.42h11.36v2h-9.06v4.94h8.07v2h-8.07v5.19Z"/></svg>