<svg id="Слой_1" data-name="Слой 1" xmlns="http://www.w3.org/2000/svg" viewBox="0 0 250 137"><defs><style>.cls-1{fill:#fff;}</style></defs><rect class="cls-1" width="250" height="137" rx="58"/><path d="M74.09,46.48V52H72V48.48H58.7l0,3.52H56.54l0-5.52h.79q1.51-.09,2.13-2.4a29.83,29.83,0,0,0,.76-6.52l.16-5.18H71.72v14.1ZM61.73,43.4a5.5,5.5,0,0,1-1.37,3.08h9.08V34.38H62.38l-.11,3.39A38.64,38.64,0,0,1,61.73,43.4Z"/><path d="M90.4,32.38v16.1H88.14V34.38H81l-.16,4.72a34.22,34.22,0,0,1-.54,5.4A6.65,6.65,0,0,1,79,47.62a3.13,3.13,0,0,1-2.48,1.05A5.67,5.67,0,0,1,75,48.48l.16-2a3.12,3.12,0,0,0,.74.09,1.92,1.92,0,0,0,1.59-.79,6,6,0,0,0,.89-2.39,28.63,28.63,0,0,0,.39-4.18l.26-6.79Z"/><path d="M107.21,32.38v16.1H105V43.79h-4.43l-.62,0-3.23,4.71H94.24l3.56-5.1a5.05,5.05,0,0,1-2.64-1.92,5.63,5.63,0,0,1-.92-3.28A5.35,5.35,0,0,1,96,33.91a7,7,0,0,1,4.75-1.53Zm-9.6,8.53a4.45,4.45,0,0,0,3.09,1H105V34.38h-4.11a4.72,4.72,0,0,0-3.18,1,3.56,3.56,0,0,0-1.1,2.81A3.54,3.54,0,0,0,97.61,40.91Z"/><path d="M121.25,47.6a7.87,7.87,0,0,1-3-3,8.64,8.64,0,0,1,0-8.44,7.87,7.87,0,0,1,3.06-2.94,9,9,0,0,1,4.37-1.07,9.13,9.13,0,0,1,3.45.63,7.09,7.09,0,0,1,2.67,1.88l-1.5,1.45a6,6,0,0,0-4.53-1.91,6.65,6.65,0,0,0-3.24.8,5.91,5.91,0,0,0-2.27,2.22,6.59,6.59,0,0,0,0,6.33,5.91,5.91,0,0,0,2.27,2.22,6.65,6.65,0,0,0,3.24.8,6,6,0,0,0,4.53-1.93l1.5,1.45A7.16,7.16,0,0,1,129.07,48a9.07,9.07,0,0,1-3.46.65A8.94,8.94,0,0,1,121.25,47.6Z"/><path d="M147.71,32.38l-7.15,13.27a6.56,6.56,0,0,1-2,2.37,4.41,4.41,0,0,1-2.51.79,5.21,5.21,0,0,1-2.16-.49l.6-1.84a4.58,4.58,0,0,0,1.51.3,2.88,2.88,0,0,0,2.51-1.61l.37-.57-6.49-12.22h2.46l5.22,10.22,5.36-10.22Z"/><path d="M150.82,32.38l4.2,5.89,4.21-5.89h2.7l-5.46,7.73,5.89,8.37h-2.71L155,42.07l-4.59,6.41h-2.65l5.87-8.28-5.48-7.82Z"/><path d="M164.73,32.38H167V44.8l9.52-12.42h2.12v16.1h-2.26V36.09l-9.54,12.39h-2.12Z"/><path d="M184.58,32.38l4.21,5.89L193,32.38h2.69l-5.45,7.73,5.89,8.37h-2.72l-4.62-6.41-4.6,6.41h-2.65l5.87-8.28-5.47-7.82Z"/><path d="M50.21,60h2.28V72.4L62,60h2.12v16.1H61.88V63.69L52.33,76.08H50.21Z"/><path d="M87.83,69.13a4.25,4.25,0,0,1-.69,5.8,7.29,7.29,0,0,1-4.45,1.15H75.33V60h6.92a7,7,0,0,1,4.13,1.07,3.57,3.57,0,0,1,1.49,3.07,3.7,3.7,0,0,1-.66,2.23,3.85,3.85,0,0,1-1.85,1.38A4.5,4.5,0,0,1,87.83,69.13ZM77.61,67.07h4.48a4.19,4.19,0,0,0,2.57-.67,2.29,2.29,0,0,0,.88-2,2.33,2.33,0,0,0-.89-2,4.19,4.19,0,0,0-2.56-.68H77.61Zm8.74,4.44a2.33,2.33,0,0,0-.93-2,4.9,4.9,0,0,0-2.78-.65h-5v5.45h5Q86.35,74.27,86.35,71.51Z"/><path d="M105.67,60v16.1h-2.26V62H96.28l-.16,4.72a32.24,32.24,0,0,1-.54,5.41,6.71,6.71,0,0,1-1.34,3.11,3.15,3.15,0,0,1-2.49,1,5.67,5.67,0,0,1-1.45-.19l.16-2a3.18,3.18,0,0,0,.74.09,1.92,1.92,0,0,0,1.59-.79,6,6,0,0,0,.9-2.38,32.1,32.1,0,0,0,.39-4.19L94.33,60Z"/><path d="M121.15,72.06h-8.56l-1.77,4h-2.37L115.74,60H118l7.31,16.1h-2.41Zm-.81-1.84-3.47-7.89-3.47,7.89Z"/><path d="M140.88,69h-3.06v7.08h-2.25V69h-3.08L128,76.08h-2.69l5.31-8.37L125.68,60h2.46l4.3,7h3.13V60h2.25v7h3.08l4.33-7h2.46l-4.92,7.78,5.31,8.32h-2.69Z"/><path d="M164.34,60v16.1H162V68.91h-9.25v7.17h-2.3V60h2.3v6.93H162V60Z"/><path d="M180.82,66.88a4.7,4.7,0,0,1,1.53,3.8,4.94,4.94,0,0,1-1.65,4,7.1,7.1,0,0,1-4.7,1.38h-6.65V60h2.28V65.6h4.79A6.71,6.71,0,0,1,180.82,66.88ZM179,73.36a3.27,3.27,0,0,0,1.07-2.63q0-3.32-4.14-3.32h-4.28v6.86h4.28A4.65,4.65,0,0,0,179,73.36ZM184.9,60h2.28v16.1H184.9Z"/><path d="M193.11,60l4.21,5.89L201.53,60h2.69l-5.45,7.73,5.89,8.37h-2.72l-4.62-6.41-4.6,6.41h-2.64l5.86-8.28L190.47,60Z"/><path d="M96.18,96.73a4.25,4.25,0,0,1-.69,5.8A7.29,7.29,0,0,1,91,103.68H83.68V87.58H90.6a7,7,0,0,1,4.13,1.07,3.57,3.57,0,0,1,1.49,3.07A3.76,3.76,0,0,1,95.56,94a3.89,3.89,0,0,1-1.85,1.37A4.5,4.5,0,0,1,96.18,96.73ZM86,94.67h4.48A4.19,4.19,0,0,0,93,94a2.29,2.29,0,0,0,.88-2,2.31,2.31,0,0,0-.9-2,4.14,4.14,0,0,0-2.55-.68H86Zm8.74,4.44a2.33,2.33,0,0,0-.93-2A4.82,4.82,0,0,0,91,96.42H86v5.45h5Q94.7,101.87,94.7,99.11Z"/><path d="M103.71,102.8a8,8,0,0,1-3.07-3,8.54,8.54,0,0,1,0-8.42,8,8,0,0,1,3.07-3,9.52,9.52,0,0,1,8.77,0,7.77,7.77,0,0,1,3,2.94,8.58,8.58,0,0,1,0,8.44,7.87,7.87,0,0,1-3,3,9.52,9.52,0,0,1-8.77,0Zm7.58-1.78a5.94,5.94,0,0,0,2.23-2.22,6.52,6.52,0,0,0,0-6.33,5.94,5.94,0,0,0-2.23-2.22,6.26,6.26,0,0,0-3.18-.8,6.4,6.4,0,0,0-3.21.8,6,6,0,0,0-2.26,2.22,6.59,6.59,0,0,0,0,6.33A6,6,0,0,0,104.9,101a6.51,6.51,0,0,0,3.21.8A6.36,6.36,0,0,0,111.29,101Z"/><path d="M133.06,87.58v16.1h-2.25V89.58h-7.13l-.16,4.72a34.63,34.63,0,0,1-.54,5.41,6.87,6.87,0,0,1-1.35,3.11,3.13,3.13,0,0,1-2.48,1.05,5.61,5.61,0,0,1-1.45-.19l.16-2a3,3,0,0,0,.73.09,1.92,1.92,0,0,0,1.59-.79,5.8,5.8,0,0,0,.9-2.39,28.63,28.63,0,0,0,.39-4.18l.25-6.79Z"/><path d="M140.93,102.8a7.88,7.88,0,0,1-3.07-3,8.47,8.47,0,0,1,0-8.42,7.85,7.85,0,0,1,3.07-3,9.5,9.5,0,0,1,8.76,0,7.87,7.87,0,0,1,3.06,2.94,8.64,8.64,0,0,1,0,8.44,8,8,0,0,1-3.06,3,9.5,9.5,0,0,1-8.76,0Zm7.58-1.78a6,6,0,0,0,2.23-2.22,6.59,6.59,0,0,0,0-6.33,6,6,0,0,0-2.23-2.22,6.33,6.33,0,0,0-3.19-.8,6.43,6.43,0,0,0-3.21.8,5.85,5.85,0,0,0-2.25,2.22,6.52,6.52,0,0,0,0,6.33,5.85,5.85,0,0,0,2.25,2.22,6.53,6.53,0,0,0,3.21.8A6.43,6.43,0,0,0,148.51,101Z"/><path d="M160.42,102.8a7.94,7.94,0,0,1-3-3,8.64,8.64,0,0,1,0-8.44,7.87,7.87,0,0,1,3.06-2.94,9,9,0,0,1,4.37-1.07,9.13,9.13,0,0,1,3.45.63,7.09,7.09,0,0,1,2.67,1.88l-1.5,1.45a6,6,0,0,0-4.53-1.91,6.54,6.54,0,0,0-3.24.8,5.91,5.91,0,0,0-2.27,2.22,6.59,6.59,0,0,0,0,6.33,5.91,5.91,0,0,0,2.27,2.22,6.65,6.65,0,0,0,3.24.8,6,6,0,0,0,4.53-1.93l1.5,1.45a7.16,7.16,0,0,1-2.68,1.88,9.07,9.07,0,0,1-3.46.65A8.91,8.91,0,0,1,160.42,102.8Z"/></svg>