<svg width="110" height="109" fill="none" xmlns="http://www.w3.org/2000/svg"><path d="M60.455 108.289c27.363 0 49.545-22.183 49.545-49.546S87.818 9.198 60.455 9.198c-27.363 0-49.546 22.182-49.546 49.545 0 27.363 22.183 49.546 49.546 49.546z" fill="#fff"/><path d="m0 46.63.55-2.077 9.912 2.627 1.64-6.218 1.893.505-2.202 8.283L0 46.63zM10.175 38.668a4.589 4.589 0 0 1-2.294-6.16c1.296-2.616 4.015-2.925 6.39-1.755l.516.298-2.994 6.08a2.558 2.558 0 0 0 3.258-1.33 3.303 3.303 0 0 0 .126-2.72l1.537-.63a4.669 4.669 0 0 1-.126 4.14 4.588 4.588 0 0 1-6.413 2.077zm2.455-6.39A2.386 2.386 0 0 0 9.418 33.3a2.49 2.49 0 0 0 1.147 3.212l2.065-4.233zM11.85 25.338l1.377-1.583 1.055.918a3.28 3.28 0 0 1 .642-3.212 2.891 2.891 0 0 1 3.017-.998 3.74 3.74 0 0 1 .826-3.442c1.32-1.514 3.075-1.594 4.773-.114l4.416 3.854-1.377 1.583-3.934-3.441c-1.147-.964-2.145-.964-2.925-.07a1.985 1.985 0 0 0 .424 2.984l3.912 3.44-1.365 1.641-3.958-3.441c-1.078-.94-2.134-.94-2.902-.058a2.02 2.02 0 0 0 .447 2.995l3.889 3.441-1.377 1.583-6.94-6.08zM26.648 16.333a4.898 4.898 0 1 1 6.711 1.296 4.805 4.805 0 0 1-6.71-1.296zm6.367-4.256a2.834 2.834 0 0 0-3.935-.94 2.775 2.775 0 0 0-.654 4.037 2.844 2.844 0 0 0 3.97.918 2.788 2.788 0 0 0 .619-4.015zM35.435 5.527l1.962-.78.516 1.33a3.35 3.35 0 0 1 2.088-2.557 3.166 3.166 0 0 1 4.348 2.087l2.145 5.46-2.008.77-1.915-4.865c-.528-1.33-1.492-1.835-2.662-1.376a2.053 2.053 0 0 0-1.09 2.89l1.893 4.83-1.961.769-3.316-8.558zM58.872 9.186 58.78 8.04a3.705 3.705 0 0 1-2.822 1.549 2.948 2.948 0 0 1-3.442-2.627c-.137-2.042 1.366-3.12 3.442-3.27a7.87 7.87 0 0 1 2.57.196v-.173c-.092-1.273-.941-1.904-2.398-1.8a6.344 6.344 0 0 0-2.581.757l-.7-1.64A7.766 7.766 0 0 1 56.291.02c2.718-.207 4.14 1.147 4.313 3.579l.39 5.437-2.122.15zm-.23-3.785a5.988 5.988 0 0 0-2.134-.218c-1.307.103-2.053.688-1.984 1.617.069.93.872 1.297 1.87 1.216 1.388-.092 2.374-.952 2.294-2.099l-.046-.516zM63.896.032l2.088.207-.195 2.053A3.281 3.281 0 0 1 69.23.365l-.206 2.225h-.126c-1.836-.183-3.224.895-3.442 3.327l-.332 3.441-2.1-.195.872-9.13zM70.194 5.217a4.897 4.897 0 1 1 3.441 5.92 4.807 4.807 0 0 1-3.441-5.92zm7.422 2.042a2.845 2.845 0 0 0-1.939-3.602 2.764 2.764 0 0 0-3.441 2.122 2.856 2.856 0 0 0 1.927 3.602 2.788 2.788 0 0 0 3.453-2.122zM84.556 4.62l1.813 1.067-.712 1.205a3.258 3.258 0 0 1 3.224.057 2.925 2.925 0 0 1 1.491 2.788 3.751 3.751 0 0 1 3.51.183c1.721 1.021 2.123 2.73.976 4.67l-2.972 5.058-1.823-1.067 2.661-4.508c.746-1.25.55-2.294-.47-2.88a1.982 1.982 0 0 0-2.857.964l-2.627 4.474-1.824-1.078 2.662-4.508c.734-1.228.539-2.295-.47-2.868a2.008 2.008 0 0 0-2.857.975l-2.627 4.462-1.824-1.078 4.726-7.915zM97.152 25.143l.803-.791a3.717 3.717 0 0 1-3.04-1.148 2.947 2.947 0 0 1-.264-4.347c1.446-1.434 3.258-.998 4.76.527a7.727 7.727 0 0 1 1.527 2.077l.126-.126c.894-.895.826-1.95-.207-2.994a6.393 6.393 0 0 0-2.294-1.457l.803-1.595a7.714 7.714 0 0 1 3.005 1.939c1.916 1.927 1.824 3.877.081 5.598l-3.866 3.843-1.434-1.526zm2.765-2.673a5.93 5.93 0 0 0-1.216-1.755c-.941-.94-1.87-1.147-2.524-.47-.654.677-.413 1.514.287 2.225a2.146 2.146 0 0 0 3.085.367l.368-.367z" fill="#1D1D1B"/><path d="M60.455 102.014c23.897 0 43.27-19.373 43.27-43.27 0-23.898-19.373-43.271-43.27-43.271-23.898 0-43.27 19.373-43.27 43.27 0 23.898 19.372 43.271 43.27 43.271z" fill="#FFF3B5"/><path d="M60.455 95.727c20.425 0 36.984-16.558 36.984-36.984 0-20.425-16.559-36.984-36.984-36.984-20.426 0-36.984 16.559-36.984 36.984 0 20.426 16.558 36.984 36.984 36.984z" fill="#FFEB78"/><path d="M60.455 89.452c16.96 0 30.709-13.749 30.709-30.709s-13.75-30.71-30.71-30.71-30.709 13.75-30.709 30.71 13.75 30.71 30.71 30.71z" fill="#FFE43B"/><path d="M60.455 83.166c13.488 0 24.422-10.935 24.422-24.423 0-13.488-10.934-24.423-24.422-24.423-13.489 0-24.423 10.935-24.423 24.423 0 13.488 10.934 24.423 24.423 24.423z" fill="#FFE000"/><path d="M40.7 51.287a13.652 13.652 0 0 1-3.659-1.767.975.975 0 0 1-.39-1.227 14.327 14.327 0 0 1 3.442-5.266 45.668 45.668 0 0 1 14.557-9.475c.069 0 .115 0 .115-.138l.78-.24a.804.804 0 0 0 .573-.184l1.25-.402c.244.001.48-.075.678-.218l.287-.092a.138.138 0 0 0 .195-.068l.286-.092a11.01 11.01 0 0 0 1.962-.333 28.978 28.978 0 0 1 4.462-.321.862.862 0 0 1 .895.837c0 .54-.24.826-.849.85-.929 0-1.847 0-2.776.125-1.955.175-3.88.587-5.736 1.228a41.181 41.181 0 0 0-7.158 3.373 39.963 39.963 0 0 0-8.133 6.137 17.764 17.764 0 0 0-2.684 3.441l-.115.23c-.298.665-.276.71.355 1.043a16.31 16.31 0 0 0 5.656 1.606c.791.104 1.583.15 2.363.23 3.572.165 7.15-.074 10.669-.711 1.161-.21 2.31-.486 3.44-.826a24.49 24.49 0 0 0 5.909-2.535 19.502 19.502 0 0 0 8.03-8.661.356.356 0 0 0 .069-.241c-.104-.115-.218 0-.322 0l-5.345 1.709a1.4 1.4 0 0 0-.872.757l-2.352 4.692c-.401.78-.929 1.078-1.422.814-.493-.263-.55-.86-.138-1.651l1.56-3.017c.107-.145.174-.315.195-.494-.195-.091-.344 0-.493.07l-4.336 1.376a1.49 1.49 0 0 0-.964.814c-.665 1.33-1.342 2.65-2.03 3.958-.31.573-.712.734-1.148.516a.804.804 0 0 1-.424-1.216c.39-.837.837-1.64 1.262-2.478a1.56 1.56 0 0 0 .206-.493c-.183-.08-.32 0-.458.057-1.148.379-2.375.769-3.568 1.147a1.342 1.342 0 0 0-.883.746c-.436.86-.884 1.71-1.32 2.558a1.972 1.972 0 0 1-.355.55.815.815 0 0 1-1.056.15.838.838 0 0 1-.39-1.044c.195-.47.46-.895.677-1.354.08-.16.23-.31.172-.504-.057-.195-.332 0-.493.08l-2.948.895c-.597.195-1.044 0-1.228-.436a.998.998 0 0 1 .643-1.25c.505-.196 1.02-.345 1.537-.505.516-.16 1.239-.39 1.893-.585a3.136 3.136 0 0 0-.689-.402c-.332-.195-.7-.344-1.02-.55a.86.86 0 0 1-.413-1.148.86.86 0 0 1 1.147-.493c.59.193 1.147.475 1.652.837 1.686.964 1.686.964 3.441.39l3.029-.974-2.673-1.297a1.618 1.618 0 0 1-.712-.55.895.895 0 0 1 .241-1.09.918.918 0 0 1 1.079 0l.355.172c1.216.654 2.455 1.262 3.671 1.904a1.042 1.042 0 0 0 .826.115l5.242-1.687-1.032-.527c-.906-.47-1.812-.952-2.73-1.4a1.147 1.147 0 0 1-.7-1.067c.287-.745.574-.883 1.411-.619 1.354.849 2.856 1.422 4.233 2.237a2.787 2.787 0 0 0 2.65.172c1.583-.574 3.2-1.044 4.898-1.583a16.52 16.52 0 0 0-5.655-2.214 6.679 6.679 0 0 1-.688-.15.79.79 0 0 1-.563-1.009c.31-.62.482-.71 1.148-.585a18.355 18.355 0 0 1 8.03 3.442c.608.459.665.608.424 1.319a2.627 2.627 0 0 0 0 1.778 4.978 4.978 0 0 1-.298 3.82 1.308 1.308 0 0 0 .356 1.801 22.76 22.76 0 0 1 5.242 7.422 23.14 23.14 0 0 1 .482 18.045 22.82 22.82 0 0 1-3.866 6.584.85.85 0 0 1-1.262.287.79.79 0 0 1-.115-1.25c.299-.379.608-.757.895-1.147a21.796 21.796 0 0 0-.837-26.878 16.789 16.789 0 0 0-1.687-1.813 3.017 3.017 0 0 1-.826-3.705 7.51 7.51 0 0 0 .39-1.147 21.055 21.055 0 0 1-2.684 3.58c-.142.19-.225.416-.24.653a18.182 18.182 0 0 1-4.52 9.108 32.475 32.475 0 0 1-9.912 7.285 28.827 28.827 0 0 1-4.06 1.514 12.954 12.954 0 0 1-4.406.436 1.583 1.583 0 0 1-1.537-1.285 13.768 13.768 0 0 1-.402-4.944c.123-1.308.346-2.604.666-3.877.126-.528.114-.54-.425-.551a30.839 30.839 0 0 1-6.802-.837 1.39 1.39 0 0 1-.826-.287z" fill="#1D1D1B"/><path d="M58.069 32.336a.608.608 0 0 1-.677.218l.677-.218z" fill="#24242A"/><path d="M56.141 32.932a.471.471 0 0 1-.573.184l.573-.184z" fill="#232328"/><path d="M58.55 32.175c0 .16-.091.15-.195.069l.195-.069z" fill="#747177"/><path d="M54.34 62.517a30.974 30.974 0 0 0 13.456-8.27 17.735 17.735 0 0 0 4.968-9.728.917.917 0 0 1 .195-.505 20.835 20.835 0 0 0 2.994-4.004 2.972 2.972 0 0 1-.322 1.503 2.88 2.88 0 0 0 .758 3.717 21.98 21.98 0 0 1 1.732 29.757c-.505.63-.528.826-.15 1.376l-1.365 1.308a1.617 1.617 0 0 0-1.605.54 16.057 16.057 0 0 1-2.696 1.846 1.148 1.148 0 0 1-.47.184 23.384 23.384 0 0 1-4.887-.643 1.64 1.64 0 0 1-.574-.206 1.286 1.286 0 0 0-1.147-.287 22.565 22.565 0 0 1-11.036-7.904 7.043 7.043 0 0 1-.642-7.548c.131-.456.41-.855.791-1.136z" fill="#FFE300"/><path d="M66.454 79.334a20.98 20.98 0 0 0 4.589.78l.757.07c0 .297-.298.355-.493.447a21.876 21.876 0 0 1-12.825 2.294 12.779 12.779 0 0 1-1.595-.252 2.936 2.936 0 0 0-3.017 1.365 3.946 3.946 0 0 1-4.588 2.065 4.014 4.014 0 0 1-2.673-5.518 2.868 2.868 0 0 0-.815-3.751 21.794 21.794 0 0 1-4.588-6.436c-1.601-3.418-2.3-7.19-2.03-10.955.106-1.669.419-3.318.928-4.91.207-.63.448-1.216-.057-1.813.206-.481.424-.974.63-1.468 2.095.546 4.24.877 6.402.987h1.503c.493 0 .413.103.32.436a20.351 20.351 0 0 0-.79 6.114c.03 1.075.211 2.141.538 3.166a1.147 1.147 0 0 0 1.079.895c1.54.156 3.095.028 4.589-.379a7.525 7.525 0 0 0-.838 7.296 10.81 10.81 0 0 0 2.134 2.971 23.381 23.381 0 0 0 7.686 5.518c.654.298 1.353.47 1.984.826.057.15 0 .252-.092.379a.585.585 0 0 0 .127.688.608.608 0 0 0 .688.138.573.573 0 0 0 .378-.586c-.011-.126-.103-.263.07-.367z" fill="#FAB712"/><path d="M47.056 50.679a23.16 23.16 0 0 1-6.952-1.308 15.897 15.897 0 0 1-1.548-.734c-.264-.15-.299-.275-.172-.55a14.166 14.166 0 0 1 2.994-4.153 39.635 39.635 0 0 1 8.775-6.516 37.039 37.039 0 0 1 7.457-3.338 23.036 23.036 0 0 1 7.445-1.067.929.929 0 0 0 1.078-.746l1.64.138c0 .872.7.906 1.285 1.055-.126.241-.378.264-.608.298a31.916 31.916 0 0 0-4.726 1.148 2.18 2.18 0 0 1-.895.137c-.722-.218-.906-.149-1.262.505a.952.952 0 0 1-.47.378 34.051 34.051 0 0 0-4.738 2.295l-.183.08-.218-.08a.86.86 0 0 0-1.021 0 .848.848 0 0 0-.252.986.413.413 0 0 1-.172.241 39.212 39.212 0 0 0-3.144 2.34l-1.445-.722a.791.791 0 0 0-1.18.934.77.77 0 0 0 .457.442c.298.172.62.333.93.494a6.173 6.173 0 0 1-1.148 1.204l-1.583.528a.825.825 0 0 0-.642 1.032c.137.436.562.608 1.147.436l3.28-1.044c.127 0 .253-.172.402 0-.997.393-2.016.73-3.051 1.01a1.389 1.389 0 0 0-1.056 1.01 7.102 7.102 0 0 0-.355 3.13.516.516 0 0 1-.069.437z" fill="#CED954"/><path d="M40.07 52.72c.574.414.62.563.39 1.24A21.887 21.887 0 0 0 46 76.834a3.142 3.142 0 0 1 1.148 2.57 3.993 3.993 0 0 1-.367 1.147 3.774 3.774 0 0 0 .677 4.267 3.82 3.82 0 0 0 4.21.998 3.9 3.9 0 0 0 1.996-1.732 2.798 2.798 0 0 1 3.292-1.514c4.244.805 8.63.35 12.618-1.308a10.247 10.247 0 0 0 2.157-1.079 16.497 16.497 0 0 0 3.499-2.374.951.951 0 0 1 1.376-.138c.299.55.264.838-.206 1.228a23.574 23.574 0 0 1-19.765 5.162c-.826-.16-1.148 0-1.687.929a5.437 5.437 0 0 1-9.659-4.933c.47-1.147.413-1.33-.47-2.202a23.493 23.493 0 0 1-5.827-24.446c.229-.62.413-.734 1.078-.688z" fill="#1D1D1B"/><path d="M47.056 50.679a6.126 6.126 0 0 1 .321-3.786 1.148 1.148 0 0 1 .895-.815c.94-.263 1.858-.585 2.788-.883.149 0 .31-.16.481 0l-.883 1.755c-.264.54-.172.953.252 1.147.425.195.826.07 1.148-.458.516-.987 1.02-1.973 1.525-2.96.104-.195.195-.379.436-.447l4.715-1.503c-.012.203-.084.4-.206.562l-1.32 2.57c-.298.585-.206.975.264 1.147.47.172.803 0 1.147-.494l2.134-4.13c.092-.194.172-.39.413-.47l5.598-1.79c.069.196 0 .31-.115.437l-1.892 3.682c-.276.54-.161 1.01.263 1.216.425.207.826 0 1.148-.516.879-1.706 1.758-3.415 2.638-5.128a.829.829 0 0 1 .482-.482c1.927-.665 4.003-1.319 6.171-1.996a.746.746 0 0 1-.149.574 19.342 19.342 0 0 1-7.273 8.225 25.308 25.308 0 0 1-8.638 3.51 45.552 45.552 0 0 1-12.343 1.033zM69.793 48.752a16.933 16.933 0 0 1-3.637 4.978 31.397 31.397 0 0 1-8.328 5.828 15.992 15.992 0 0 1-7.044 1.87c-.505 0-.734-.138-.849-.654a13.056 13.056 0 0 1 0-5.575.596.596 0 0 1 .54-.218c2.17-.121 4.33-.374 6.47-.758a27.29 27.29 0 0 0 11.31-4.588c.356-.252.677-.562 1.044-.803.172-.115.321-.321.493-.08z" fill="#DCE064"/><path d="M69.793 48.751c-.39 0-.586.333-.838.528a25.881 25.881 0 0 1-9.602 4.589c-2.072.533-4.187.89-6.32 1.066l-3.052.264c.131-.896.327-1.782.585-2.65.07-.263.241-.286.46-.286a50.486 50.486 0 0 0 6.297-.62 27.933 27.933 0 0 0 13.1-5.346c.092-.068.161-.183.367-.137-.228.9-.563 1.771-.998 2.592z" fill="#CED954"/><path d="M62.84 35.077a29.115 29.115 0 0 1 5.736-1.456c.164-.036.325-.082.482-.138a16.358 16.358 0 0 1 5.862 2.294c0 .184-.183.16-.275.195l-5.92 1.893a.641.641 0 0 1-.527 0l-5.357-2.788zM56.176 38.347c.092-.356.447-.379.688-.528a39.225 39.225 0 0 1 4.703-2.237 1.067 1.067 0 0 0 .712.987c1.319.642 2.604 1.319 3.9 1.984 0 .184-.172.161-.275.195l-5.185 1.664a.666.666 0 0 1-.574 0l-3.97-2.065zM51.37 41.788a2.971 2.971 0 0 1 1.043-1.02 19.394 19.394 0 0 1 2.295-1.595c.33.303.721.534 1.147.676l2.455 1.25c0 .196-.184.173-.276.207l-4.313 1.389a.758.758 0 0 1-.665 0c-.654-.345-1.194-.586-1.687-.907zM49.006 44.14c.29-.48.682-.892 1.147-1.205l1.044.517-2.19.688z" fill="#DCE064"/><path d="M68.313 79.048a.747.747 0 0 1-.941-.528.746.746 0 0 1 .54-.93.792.792 0 0 1 .951.517.768.768 0 0 1-.55.94zM65.778 76.237a.77.77 0 1 1-.505.952.735.735 0 0 1 .505-.952zM66.454 79.335A.769.769 0 0 1 66.1 80.4a.711.711 0 0 1-.975-.263c-.264-.39-.08-.735.16-1.056a.849.849 0 0 1 1.17.253zM43.913 54.074a.78.78 0 0 1-.482.975.803.803 0 0 1-.975-.504.791.791 0 0 1 .493-.976.746.746 0 0 1 .964.505zM41.584 55.979a.792.792 0 0 1 .975.493.747.747 0 0 1-.47.975.78.78 0 0 1-.505-1.468zM44.739 57.172a.758.758 0 0 1-.918-.574.734.734 0 0 1 .54-.93.803.803 0 0 1 .94.563.815.815 0 0 1-.562.94z" fill="#1D1D1B"/></svg>