<svg width="110" height="108" fill="none" xmlns="http://www.w3.org/2000/svg"><path d="M60.702 107.577c27.226 0 49.298-22.071 49.298-49.298S87.928 8.98 60.702 8.98c-27.227 0-49.299 22.072-49.299 49.299s22.072 49.298 49.299 49.298z" fill="#fff"/><path d="m0 50.907.46-2.089 6.098-2.287-4.605-4.605.46-2.088 11.33 2.36-.44 1.984-8.134-1.723 4.574 4.73v.063l-6.067 2.402 8.082 1.754-.418 1.953L0 50.907zM16.98 35.42l-.972-.47a3.561 3.561 0 0 1-.083 3.133c-.72 1.494-2.193 2.402-3.812 1.63-1.618-.773-1.932-2.6-1.044-4.438a7.468 7.468 0 0 1 1.41-2.047l-.147-.073c-1.044-.522-2.015-.126-2.62 1.138a6.265 6.265 0 0 0-.585 2.485l-1.682-.198c0-1.153.268-2.29.784-3.32 1.106-2.33 2.871-2.872 4.98-1.87l4.679 2.235-.909 1.796zm-3.28-1.576a5.61 5.61 0 0 0-1.221 1.608c-.543 1.138-.397 2.026.396 2.402.794.376 1.483-.115 1.89-.96a2.09 2.09 0 0 0-.657-2.883l-.408-.167zM11.779 26.795l1.19-1.608 1.045.814a3.133 3.133 0 0 1 .397-3.132c1.2-1.556 2.965-1.692 4.594-.512l4.47 3.31-1.191 1.608-3.989-2.955a1.828 1.828 0 0 0-2.83.22 1.94 1.94 0 0 0 .564 2.882l3.958 2.944-1.19 1.609-7.018-5.18zM25.814 25.542l-.45-1.629a5.712 5.712 0 0 0 2.945-1.368 2.455 2.455 0 0 0 .282-3.853l-.449-.512a3.664 3.664 0 0 1-1.232 3.248 4.124 4.124 0 0 1-5.472-6.161 3.759 3.759 0 0 1 3.28-.92l-.868-.98 1.494-1.327 4.626 5.221a4.46 4.46 0 0 1 1.357 3.206 4.917 4.917 0 0 1-1.9 3.269 7.624 7.624 0 0 1-3.613 1.806zm.668-9.252a2.455 2.455 0 0 0-3.53-.104 2.434 2.434 0 1 0 3.227 3.634 2.453 2.453 0 0 0 .303-3.53zM30.23 13.91a4.668 4.668 0 1 1 6.266 1.67 4.585 4.585 0 0 1-6.265-1.67zm6.37-3.614a2.703 2.703 0 0 0-3.727-1.128 2.632 2.632 0 0 0-.94 3.791 2.704 2.704 0 0 0 3.707 1.044 2.642 2.642 0 0 0 .919-3.707h.041zM51.523 9.826l-.23-1.044a3.55 3.55 0 0 1-2.485 1.859 2.81 2.81 0 0 1-3.645-1.984c-.417-1.89.846-3.133 2.83-3.572a7.372 7.372 0 0 1 2.433-.177V4.75c-.271-1.18-1.159-1.66-2.516-1.357a6.099 6.099 0 0 0-2.319 1.044l-.887-1.441a7.476 7.476 0 0 1 3.133-1.452c2.516-.563 4.04.48 4.563 2.757l1.138 5.054-2.015.47zm-.752-3.582a5.795 5.795 0 0 0-2.089.105c-1.221.282-1.838.94-1.64 1.796.2.856 1.045 1.096 1.933.888 1.284-.293 2.088-1.233 1.848-2.308l-.052-.48zM54.885.48 56.89.355l.125 1.963A3.133 3.133 0 0 1 59.971 0l.135 2.088h-.114c-1.755.105-2.903 1.327-2.768 3.645l.21 3.32-1.995.126L54.885.48zM61.171 4.428a4.657 4.657 0 1 1 4.177 4.98 4.564 4.564 0 0 1-4.177-4.98zm7.31.7a2.702 2.702 0 0 0-2.402-3.06 2.621 2.621 0 0 0-2.913 2.537 2.706 2.706 0 0 0 2.38 3.06 2.642 2.642 0 0 0 2.904-2.538h.031zM73.723 1.337l1.89.658-.428 1.253a3.133 3.133 0 0 1 3.007-.543 2.777 2.777 0 0 1 1.953 2.318 3.561 3.561 0 0 1 3.342-.418c1.806.627 2.496 2.151 1.785 4.177l-1.89 5.221-1.89-.668 1.65-4.689c.46-1.305.094-2.224-.97-2.6a1.89 1.89 0 0 0-2.486 1.43l-1.63 4.648-1.879-.668 1.66-4.7c.45-1.284.074-2.224-.97-2.59A1.921 1.921 0 0 0 74.35 5.65l-1.63 4.647-1.89-.668 2.893-8.291zM89.053 17.909l.584-.898a3.54 3.54 0 0 1-3.017-.491 2.808 2.808 0 0 1-1.118-3.99c1.044-1.628 2.83-1.576 4.532-.47.688.44 1.298.991 1.807 1.63l.094-.136c.657-1.044.386-1.984-.784-2.746a6.078 6.078 0 0 0-2.443-.909l.418-1.64a7.414 7.414 0 0 1 3.132 1.202c2.162 1.41 2.475 3.237 1.201 5.221l-2.83 4.344-1.576-1.117zm2.088-3.04a5.628 5.628 0 0 0-1.483-1.377c-1.044-.69-1.963-.669-2.443.062-.48.731-.084 1.493.71 2.005a2.088 2.088 0 0 0 2.871-.271l.345-.418z" fill="#000"/><path d="M60.702 101.322c23.772 0 43.043-19.27 43.043-43.043 0-23.772-19.271-43.044-43.043-43.044-23.773 0-43.044 19.272-43.044 43.044s19.271 43.043 43.044 43.043z" fill="#FFE6BE"/><path d="M60.702 95.078c20.323 0 36.799-16.475 36.799-36.799 0-20.323-16.476-36.799-36.8-36.799-20.323 0-36.798 16.476-36.798 36.8 0 20.323 16.475 36.798 36.799 36.798z" fill="#FFCF7E"/><path d="M60.702 88.823c16.868 0 30.544-13.675 30.544-30.544S77.57 27.735 60.702 27.735c-16.87 0-30.544 13.675-30.544 30.544s13.675 30.544 30.544 30.544z" fill="#FFC156"/><path d="M60.702 82.578C74.121 82.578 85 71.7 85 58.28s-10.88-24.3-24.3-24.3-24.299 10.88-24.299 24.3 10.88 24.3 24.3 24.3z" fill="#FFB837"/><path d="M86.901 44.14a.866.866 0 0 1 1.201.585 24.823 24.823 0 0 1 1.807 6.035c0 .136 0 .314.156.397l.063.815c-.075.271-.05.56.073.814l.136 1.63a.908.908 0 0 0 .063.699v.7a3.32 3.32 0 0 0-.105 1.284c-.062 1.044-.46 1.347-1.472 1.044a29.236 29.236 0 0 1-7.738-3.362l-.585-.366c-2.297 5.984-2.297 5.984-6.265 10.63l2.506-.73 7.205-2.193a.898.898 0 0 1 1.285.689 17.94 17.94 0 0 1 .083 9.93.919.919 0 0 1-1.117.68.856.856 0 0 1-.731-1.045c.073-.48.23-.94.324-1.42a16.092 16.092 0 0 0 0-6.161c-.105-.532-.188-.564-.888-.365A6443.72 6443.72 0 0 0 55 72.846l-1.347.386H53.6c-.992.272-.992.272-.585 1.222.305.77.686 1.509 1.138 2.204a16.3 16.3 0 0 0 24.33 3.519 16.51 16.51 0 0 0 3.572-4.397c.117-.244.264-.472.439-.678a.78.78 0 0 1 1.107-.115c.553.501.605.741.271 1.357a17.491 17.491 0 0 1-11.967 9.2 17.814 17.814 0 0 1-15.57-3.665.752.752 0 0 0-.866-.126 18.588 18.588 0 0 1-16.05-.95.428.428 0 0 1-.157-.073 8.354 8.354 0 0 1-1.743-3.456c-.074-.282.187-.491.407-.669l2.214-1.91c-.147-.22-.366-.199-.554-.251-1.536-.438-3-1.1-4.344-1.963a8.353 8.353 0 0 1-3.53-9.754 11.225 11.225 0 0 1 1.65-3.383 50.556 50.556 0 0 0 3.258-5.775c1.327-2.59 2.59-5.22 3.676-7.894a.96.96 0 0 1 1.253-.72c.575.219.752.626.522 1.305-.332.914-.711 1.81-1.138 2.684-.198.438-.365.898-.605 1.326a105.5 105.5 0 0 1-5.075 9.68c-.223.362-.467.711-.731 1.044a7.844 7.844 0 0 0-1.045 6.422 5.91 5.91 0 0 0 2.454 3.227 15.423 15.423 0 0 0 5.221 2.287.961.961 0 0 0 .961-.251c1.733-1.483 3.457-2.997 5.221-4.49.188-.167.397-.313.585-.491a415.572 415.572 0 0 1 3.811-3.29 1.043 1.043 0 0 1 1.682.136 1.233 1.233 0 0 1-.522 1.515A2289.185 2289.185 0 0 0 41.07 76.26c-.338.25-.656.525-.95.825-.596.543-.564.532-.24 1.274a2.465 2.465 0 0 0 1.346 1.284 17.084 17.084 0 0 0 12.239.773c.741-.23.752-.272.25-.898a22.281 22.281 0 0 0-.616-.773 17.75 17.75 0 0 1-2.6-4.981c-.417-1.284-.23-1.629 1.045-2.026 4.177-1.253 8.29-2.496 12.436-3.759.742-.094 1.045-.533 1.045-1.253.36-2.567.142-5.182-.637-7.654-.23-.763-.857-1.045-1.473-1.4-.313-.167-.511.178-.741.334-1.859 1.525-3.634 3.133-5.472 4.69-.177.145-.355.302-.543.438a1.044 1.044 0 0 1-1.378-.052 1.044 1.044 0 0 1 .26-1.452c2.34-2.033 4.69-4.062 7.05-6.088a1.044 1.044 0 0 1 1.294-.094c.752.48 1.494.982 2.204 1.514.282.209.496.496.616.825a17.754 17.754 0 0 1 1.138 6.339v1.451c-.018.388-.056.775-.115 1.16 0 .219 0 .302.25.24a9.463 9.463 0 0 0 2.757-1.045 20.888 20.888 0 0 0 3.572-3.133 18.032 18.032 0 0 0 3.8-5.544 23.103 23.103 0 0 0 1.108-3.196.877.877 0 0 0-.345-1.044 19.892 19.892 0 0 1-4.177-4.584 12.531 12.531 0 0 1-2.005-10.443c.084-.323.126-.584-.188-.825a1.044 1.044 0 0 1-.386-.824.845.845 0 0 0-.512-.773A22.826 22.826 0 0 0 64.2 32.8a16.561 16.561 0 0 0-6.37-.157 15.735 15.735 0 0 0-5.44 2.026c-.502.292-1.045.595-1.483.93a25.857 25.857 0 0 0-5.973 5.857 1.796 1.796 0 0 1-.606.616c-.366.178-.742.272-1.044-.167a.898.898 0 0 1-.126-1.253 26.482 26.482 0 0 1 9.117-8.05 18.253 18.253 0 0 1 14.473-1.045 22.399 22.399 0 0 1 5.816 2.715c.282.188.428.167.606-.084.137-.19.294-.365.47-.522a1.045 1.045 0 0 1 1.493-.219 1.044 1.044 0 0 1 .198 1.441c0 .084-.146.146-.083.303 1.13.01 2.254.171 3.341.48a14.025 14.025 0 0 1 7.373 5.399.909.909 0 0 1-.157 1.253c-.47.386-.867.355-1.347-.167s-.846-1.044-1.316-1.545a10.985 10.985 0 0 0-6.746-3.457 3.299 3.299 0 0 0-1.827.052 7.518 7.518 0 0 0-.773 3.947 13.23 13.23 0 0 0 3.979 8.522 24.696 24.696 0 0 0 10.014 6.17c.185.111.404.152.616.116.083-.3.105-.612.063-.92a27.21 27.21 0 0 0-2.089-9.533c-.292-.7-.094-1.222.522-1.368z" fill="#010101"/><path d="M90.201 52.786a.658.658 0 0 1-.073-.814l.073.814z" fill="#1E1E23"/><path d="M90.4 55.115a.532.532 0 0 1-.063-.7l.063.7z" fill="#313035"/><path d="M40.255 50.217c.554-1.274 1.045-2.558 1.66-3.832a1.044 1.044 0 0 0-.323-1.43 25.192 25.192 0 0 1 1.723-3.06c.731.282.93.23 1.452-.48a27.024 27.024 0 0 1 5.638-5.65l.387-.24c.127.333.163.693.104 1.044a11.141 11.141 0 0 0 2.861 6.798 49.704 49.704 0 0 0 5.368 5.326c2.537 2.255 5.137 4.438 7.675 6.704a58.575 58.575 0 0 1 6.109 6.15c.292.345.7.637.73 1.149-.072.23-.281.313-.47.397-1.775.866-3.54 1.775-5.388 2.475-.188.073-.375.219-.595.083a21.087 21.087 0 0 0-.313-4.929 21.356 21.356 0 0 0-.898-3.132 1.108 1.108 0 0 0-.303-.418 95.258 95.258 0 0 0-2.443-1.692.804.804 0 0 0-1.045.126l-7.142 6.16a.909.909 0 0 0-.157 1.254c.063.135 0 .23-.115.302-.457.442-.942.853-1.451 1.233-.543-.512-.898-.522-1.452-.053l-3.884 3.3c-.25 0-.334-.25-.45-.428a44.533 44.533 0 0 1-5.22-10.108 45.798 45.798 0 0 1-2.058-7.049z" fill="#F07E20"/><path d="M74.433 36.976a5.733 5.733 0 0 1 2.851.084 11.425 11.425 0 0 1 6.631 4.093c.192.22.374.45.543.69a.959.959 0 0 0 1.347.386l1.044 1.87a.939.939 0 0 0-.355 1.346 26.397 26.397 0 0 1 2.089 9.89c0 .286-.021.572-.063.855-1.044-1.044-1.796-2.35-2.673-3.53-3.634-4.917-7.216-9.888-10.85-14.806a2.515 2.515 0 0 1-.564-.878z" fill="#80A347"/><path d="M83.602 74.997a.948.948 0 0 0-1.264.616 14.974 14.974 0 0 1-3.728 4.668 4.449 4.449 0 0 1-2.485.741c-.188-.334.136-.396.292-.5a14.745 14.745 0 0 0 4.981-5.64 14.316 14.316 0 0 0 1.66-7.873 12.652 12.652 0 0 0-.26-2.256.468.468 0 0 1 .062-.438c1.044-.355.898-.502 1.118.626.462 2.428.355 4.93-.314 7.31a.96.96 0 0 0 .543 1.2l-.605 1.546zM73.588 62.623a27.785 27.785 0 0 0-3.008-3.446c-1.974-2.005-4.083-3.864-6.203-5.701l-2.725-2.37a93.66 93.66 0 0 1-7.31-6.82 13 13 0 0 1-3.425-6.108 7.31 7.31 0 0 1-.146-2.653 16.3 16.3 0 0 1 8.761-3.247 20.561 20.561 0 0 1 11.873 3.237.48.48 0 0 1 .292.595.888.888 0 0 0 .512.971c.22.115.24.23.178.45-1.358 4.709.104 8.729 3.07 12.373a19.297 19.297 0 0 0 3.195 3.133.585.585 0 0 1 .24.69 19.37 19.37 0 0 1-4.354 8.447 7.154 7.154 0 0 1-.71.668c-.199.094-.157-.135-.24-.219z" fill="#EA542B"/><path d="M82.85 64.315a15.56 15.56 0 0 1 .063 6.798 15.183 15.183 0 0 1-6.558 9.586c-.094.062-.178.146-.272.22a.47.47 0 0 1-.376.291 26.534 26.534 0 0 1-14.39-.72 31.641 31.641 0 0 1-4.52-1.995 1.368 1.368 0 0 1-.523-.386 16.634 16.634 0 0 1-2.61-4.177c-.105-.26-.283-.512-.157-.825l19.005-5.743 10.056-3.039.282-.01z" fill="#FECA32"/><path d="M53.34 64.544c.24-.5.752-.73 1.107-1.106.146-.157.302-.282.459-.429a1.044 1.044 0 0 0 1.43-.094c1.807-1.576 3.635-3.132 5.462-4.71.094-.083.209-.145.324-.229a2.61 2.61 0 0 1 1.754 1.63c.809 2.584.956 5.33.428 7.988a.878.878 0 0 1-.25.511c-1.546.48-3.133.982-4.647 1.452-2.736.835-5.482 1.64-8.218 2.475-.658.188-.846.616-.637 1.305a19.778 19.778 0 0 0 2.736 5.41.69.69 0 0 1-.637.198 28.466 28.466 0 0 1-9.221-1.337c-.722-.249-1.42-.56-2.089-.93-.177-.104-.46-.177-.355-.5l8.751-7.582c1.044-.908 2.088-1.827 3.133-2.725a1.044 1.044 0 0 0 .47-1.326z" fill="#FECA32"/><path d="M40.255 50.217c.408.21.282.658.355.982a50.527 50.527 0 0 0 4.177 11.34 46.614 46.614 0 0 0 3.217 5.222l-.523.438a.939.939 0 0 1-.783.094 22.41 22.41 0 0 1-11.768-6.568c-.22-.23-.543-.418-.48-.815a84.442 84.442 0 0 0 5.44-9.962l.365-.73z" fill="#F59F1D"/><path d="M74.433 36.977c1.044 1.232 1.974 2.59 2.935 3.895 3.056 4.176 6.098 8.353 9.126 12.53.732.901 1.401 1.85 2.005 2.84-5.336-1.743-10.004-4.448-13.042-9.397a10.61 10.61 0 0 1-1.368-8.929c.083-.313.23-.605.344-.94z" fill="#7EAF48"/><path d="M34.408 60.91c.356.556.8 1.05 1.315 1.463a22.975 22.975 0 0 0 6.266 4.291c1.474.635 3 1.139 4.563 1.504.281.082.576.106.867.073l-5.493 4.772a.5.5 0 0 1-.532.136 17.45 17.45 0 0 1-5.107-2.088c-3.216-2.016-3.957-5.034-2.777-8.553a4.742 4.742 0 0 1 .898-1.598z" fill="#F3931F"/><path d="m75.728 81.064.355-.146c.858-.162 1.703-.389 2.527-.679a15.413 15.413 0 0 1-5.983 3.342 16.426 16.426 0 0 1-18.452-6.63 1.861 1.861 0 0 1-.125-.252c.23-.188.397 0 .564.115.584.408 1.211.742 1.754 1.201l.386.334c.606.408 1.149.92 1.713 1.379a14.452 14.452 0 0 0 8.594 3.31 15.664 15.664 0 0 0 8.072-1.744 4.87 4.87 0 0 0 .595-.23z" fill="#E45025"/><path d="M41.007 76.177a6.423 6.423 0 0 0 2.486 1.285 24.396 24.396 0 0 0 7.027 1.284c.921.073 1.846.073 2.767 0l.564.71c-.094.313-.386.334-.637.428a16.3 16.3 0 0 1-11.893-.96 2.37 2.37 0 0 1-1.201-1.974l.887-.773z" fill="#EEB329"/><path d="M40.12 76.95c.219.428.438.856.647 1.295.111.226.3.404.533.501a16.123 16.123 0 0 0 10.066 1.43 8.069 8.069 0 0 0 2.485-.72c.742.773.742.794-.25 1.044a17.125 17.125 0 0 1-12.917-1.044c-.805-.397-.909-1.222-1.233-1.89-.115-.178.418-.397.669-.616z" fill="#E45025"/><path d="M64.074 68.105c.447-2.059.514-4.182.199-6.265a16.092 16.092 0 0 0-.627-2.475 1.274 1.274 0 0 0-.595-.679 5.021 5.021 0 0 1-.919-.71c.032-.048.067-.093.105-.136.386-.49.72-.449 1.284-.125 1.18.647 1.295 1.775 1.546 2.84.476 2.087.547 4.246.208 6.36-.146 1.012-.146 1.012-1.2 1.19z" fill="#EA542B"/><path d="m73.587 62.623.261.22a7.683 7.683 0 0 1-1.66 1.68c-.501.45-1.044.836-1.587 1.274-1.044.898-2.35 1.045-3.624 1.483l.21-1.65c2.088-.783 4.103-1.827 6.14-2.788.091-.067.179-.14.26-.22z" fill="#E46923"/><path d="M56.337 78.014a11.272 11.272 0 0 1-1.87-1.106c-.135-.094-.25-.24-.449-.21a12.875 12.875 0 0 1-1.514-2.913c-.094-.219-.062-.355.199-.407.26-.052.522-.156.772-.24a15.83 15.83 0 0 0 2.862 4.876z" fill="#EA542B"/><path d="M75.728 81.064a14.4 14.4 0 0 1-6.516 2.089 14.911 14.911 0 0 1-8.886-1.943 13.344 13.344 0 0 1-3.572-2.86l2.715 1.22a26.962 26.962 0 0 0 6.798 1.954c2.498.315 5.028.29 7.519-.073a18.483 18.483 0 0 0 1.942-.387z" fill="#EEB329"/></svg>