<svg width="110" height="102" fill="none" xmlns="http://www.w3.org/2000/svg"><path d="M56.937 101.587c25.732 0 46.592-20.86 46.592-46.592S82.669 8.403 56.937 8.403s-46.592 20.86-46.592 46.592 20.86 46.592 46.592 46.592z" fill="#fff"/><path d="M8.746 50.712 7.602 49.33a5.083 5.083 0 0 0 1.973-3.148c.208-1.174-.197-1.974-1.046-2.161-.848-.188-1.263.217-2.102 2.132-.987 2.2-1.865 3.375-3.878 2.96C.703 48.778-.304 47.011.08 44.87a6.149 6.149 0 0 1 2.053-3.672l1.254 1.273a4.934 4.934 0 0 0-1.629 2.734c-.207 1.105.247 1.855.987 1.974.74.118 1.293-.286 2.161-2.26.987-2.181 1.974-3.217 3.81-2.892 1.974.365 2.96 2.162 2.526 4.431a6.73 6.73 0 0 1-2.497 4.254zM10.395 39.974l-4.136-1.47-.355.987-1.49-.563.355-.987-2.141-.77.67-1.766 2.132.77.75-2.092 1.54.552-.75 2.093 3.81 1.361a.909.909 0 0 0 1.322-.602c.119-.39.146-.802.079-1.204l1.46.523c.098.588.037 1.191-.177 1.747a2.121 2.121 0 0 1-3.07 1.422zM7.246 31.655l.869-1.688 1.658.859a2.96 2.96 0 0 1-.454-3.533l1.776.918-.05.098c-.759 1.48-.325 2.961 1.62 4.007l2.802 1.441-.868 1.688-7.353-3.79zM20.195 26.296l-.82-.602a3.375 3.375 0 0 1-.611 2.862c-.928 1.273-2.458 1.855-3.82.858-1.362-.996-1.352-2.743-.227-4.293a6.771 6.771 0 0 1 1.629-1.648l-.129-.088c-.917-.681-1.855-.464-2.625.601a5.854 5.854 0 0 0-.987 2.211l-1.53-.473a7.115 7.115 0 0 1 1.293-2.961c1.441-1.974 3.178-2.181 4.935-.879l3.947 2.882-1.055 1.53zm-2.764-2.073a5.25 5.25 0 0 0-1.382 1.333c-.7.987-.72 1.816-.049 2.31.671.492 1.402.147 1.925-.573.73-.987.72-2.191-.119-2.793l-.375-.277zM16.128 17.819l1.461-1.284 4.935 3.178-2.33-5.457 1.214-1.056 5.142 3.03-2.457-5.38 1.421-1.243 3.444 8.054-1.273 1.105-5.112-3.03 2.32 5.477-1.274 1.106-7.49-4.5zM33.123 13.407l.582 1.145-1.677.868-5.24-10.155 1.687-.878 2.082 4.036a3.296 3.296 0 0 1 1.777-2.665 3.948 3.948 0 0 1 5.398 2.083 3.948 3.948 0 0 1-1.46 5.566 3.306 3.306 0 0 1-3.149 0zm2.882-4.708a2.438 2.438 0 0 0-3.306-1.263 2.487 2.487 0 0 0-.918 3.474 2.487 2.487 0 0 0 3.355 1.253 2.429 2.429 0 0 0 .869-3.464zM39.43 7.219a4.107 4.107 0 0 1 2.723-5.24c2.537-.711 4.372.927 5.014 3.217 0 .118.098.424.118.513l-5.852 1.638a2.32 2.32 0 0 0 2.862 1.372 3.01 3.01 0 0 0 1.885-1.55l1.332.642a4.303 4.303 0 0 1-8.083-.602v.01zm5.733-2.21a2.152 2.152 0 0 0-2.605-1.53 2.24 2.24 0 0 0-1.48 2.674l4.085-1.145zM48.864.696 50.75.488l.197 1.846a2.962 2.962 0 0 1 2.685-2.33l.217 1.975h-.108c-1.649.187-2.685 1.381-2.438 3.562l.355 3.158-1.885.208-.908-8.211zM56.039.113h1.895V1.98a2.96 2.96 0 0 1 2.96-1.974v1.974h-.108c-1.658 0-2.842.986-2.892 3.207l-.069 3.148H55.93l.109-8.22zM61.29 10.515l.888-1.273c.282.248.62.425.986.513.523.1.889-.079 1.323-.73L62.582.271l1.974.365 1.204 6.465 3.286-5.675 1.974.355-4.757 7.767c-.987 1.55-1.786 2.033-3.099 1.796a3.946 3.946 0 0 1-1.875-.829zM79.29 14.098l.454-.908a3.355 3.355 0 0 1-2.96-.138 2.654 2.654 0 0 1-1.46-3.632c.818-1.638 2.486-1.777 4.203-.908.702.33 1.34.78 1.885 1.332l.08-.138c.512-.987.147-1.905-.988-2.497a5.793 5.793 0 0 0-2.348-.602l.227-1.589a7.086 7.086 0 0 1 3.118.8c2.181 1.095 2.665 2.773 1.678 4.747l-2.171 4.382-1.718-.85zm1.59-3.07a5.378 5.378 0 0 0-1.54-1.144c-1.066-.533-1.915-.415-2.28.325-.365.74.08 1.412.878 1.806a1.974 1.974 0 0 0 2.734-.562l.207-.424zM87.363 9.321l1.54 1.106-1.095 1.51a2.96 2.96 0 0 1 3.562.078l-1.174 1.629-.089-.07c-1.342-.986-2.96-.77-4.204.988l-1.846 2.546-1.53-1.105 4.836-6.682zM89.84 16.17a4.401 4.401 0 1 1 0 6.139 4.314 4.314 0 0 1 0-6.139zm4.866 4.935a2.544 2.544 0 0 0-.735-4.236 2.487 2.487 0 0 0-2.798.663 2.557 2.557 0 0 0-.118 3.662 2.497 2.497 0 0 0 3.651-.109v.02zM101.249 22.082l.987 1.638-1.076.622a2.96 2.96 0 0 1 2.497 1.47 2.592 2.592 0 0 1 0 2.853 3.372 3.372 0 0 1 2.665 1.697c.908 1.55.474 3.08-1.273 4.086l-4.56 2.655-.987-1.639 4.066-2.358c1.135-.662 1.441-1.54.899-2.468a1.782 1.782 0 0 0-1.975-.834c-.248.064-.481.18-.68.34l-4.037 2.34-.987-1.638 4.076-2.369c1.116-.641 1.421-1.55.898-2.448a1.792 1.792 0 0 0-1.225-.853 1.804 1.804 0 0 0-1.45.36l-4.006 2.33-.987-1.64 7.155-4.144zM102.157 43.656l.987-.286a3.328 3.328 0 0 1-1.885-2.24 2.65 2.65 0 0 1 .05-2.137 2.666 2.666 0 0 1 1.608-1.407c1.767-.503 2.961.612 3.533 2.467.234.74.338 1.515.306 2.29l.148-.05c1.105-.315 1.5-1.184 1.135-2.437a5.704 5.704 0 0 0-1.115-2.132l1.312-.917a7.002 7.002 0 0 1 1.54 2.832c.681 2.339-.217 3.839-2.339 4.45l-4.707 1.373-.573-1.806zm3.336-.918a5.274 5.274 0 0 0-.207-1.915c-.336-1.135-.987-1.678-1.787-1.45-.799.227-.987.986-.73 1.875.345 1.204 1.283 1.904 2.27 1.618l.454-.128z" fill="#000"/><path d="M56.937 95.675c22.467 0 40.68-18.213 40.68-40.68s-18.213-40.68-40.68-40.68-40.68 18.213-40.68 40.68 18.213 40.68 40.68 40.68z" fill="#FFD1DD"/><path d="M56.937 89.774c19.208 0 34.779-15.571 34.779-34.779 0-19.207-15.571-34.778-34.779-34.778-19.208 0-34.778 15.57-34.778 34.778s15.57 34.779 34.778 34.779z" fill="#FFB6CA"/><path d="M56.937 83.862c15.943 0 28.867-12.924 28.867-28.867 0-15.943-12.924-28.867-28.867-28.867-15.943 0-28.867 12.924-28.867 28.867 0 15.943 12.924 28.867 28.867 28.867z" fill="#FFA9C1"/><path d="M56.937 77.96c12.684 0 22.965-10.281 22.965-22.965 0-12.683-10.281-22.965-22.965-22.965-12.683 0-22.965 10.282-22.965 22.965 0 12.684 10.282 22.966 22.965 22.966z" fill="#FF9BB8"/><path d="M85.686 55.538c.7 0 .927.474.987 1.115a14.152 14.152 0 0 1-3.257 9.297c-2.191 2.832-5.29 4.431-8.28 6.188a29.734 29.734 0 0 0-5.122 3.829c-3.05 2.793-6.376 5.112-10.856 3.948a.701.701 0 0 0-.8.305c-3.73 4.175-7.688 4.145-12.06 1.826a15.967 15.967 0 0 1-3.868-3.237c-2.35-2.408-5.25-3.947-8.034-5.753a16.414 16.414 0 0 1-7.648-10.343 12.188 12.188 0 0 1 1.223-8.606c.287-.543.464-.878-.098-1.411a1.736 1.736 0 0 1-.277-2.162c1.668-3.414 3.879-6.079 8.014-6.365.671-.05.987-.257.74-1.115a15.525 15.525 0 0 1-.108-7.728 2.36 2.36 0 0 1 2.822-1.895 2.684 2.684 0 0 1 2.191 2.892 17.67 17.67 0 0 0-.187 4.58c0 .71.157.897.888.503.62-.436 1.28-.81 1.974-1.116a1.836 1.836 0 0 1 2.102.434c.395.445.099.76-.217 1.066a9.063 9.063 0 0 1-1.273.642 7.471 7.471 0 0 1 3.542 1.214c.928.661 1.58.108 2.142-.543.326-.385-.168-.395-.375-.513-.78-.385-1.974-.395-1.49-1.836.128-.187.217-.454.395-.543 1.371-.631 4.46.987 4.421 2.537-.04 1.55.602.987 1.145.523a13.452 13.452 0 0 1 5.645-3.178c.355-.099.444-.227.395-.553-.237-1.5.987-1.974 1.974-2.3 3.503-1.065 6.908-1.164 9.938 1.471.444.385.562.217.868-.246a29.474 29.474 0 0 1 4.293-5.044c.938-.878 2.96-1.352 3.8-.799a2.645 2.645 0 0 1 1.135 3.099 3.02 3.02 0 0 1-1.461 1.737 13.506 13.506 0 0 0-2.763 2.852c-.415.464-.642.73.355.868 2.901.405 4.836 2.29 6.326 4.678.365.563.563 1.234.888 1.826a1.855 1.855 0 0 1-.227 2.26 1.51 1.51 0 0 0-.118 1.55c.187.592.533 1.243-.178 1.756a1.184 1.184 0 0 1-1.707-.68c-.148-.287-.296-.573-.474-.85-.177-.276-.434-.779-.987-.71-.552.07-.464.602-.543.987-.473 2.388-1.973 3.03-4.036 1.658a8.171 8.171 0 0 1-2.556-2.092c-.346-.533-.7-.494-1.105-.07-.61.638-1.27 1.226-1.974 1.757-1.974 1.47-3.672.81-4.214-1.53a8.952 8.952 0 0 1-.148-2.98c.059-.523 0-.987-.701-.819-1.273.276-2.467-.237-3.701-.375-1.638-.543-2.033-.987-2.063-2.487.224-.666.558-1.29.987-1.846.198-.246.494-.493.227-.848a.907.907 0 0 0-.898-.257 7.154 7.154 0 0 0-2.743.987c-.622.523-1.54.661-2.033 1.58a11.37 11.37 0 0 1 4.806 4.815 15.278 15.278 0 0 1 1.52 11.942 60.886 60.886 0 0 0-2.22 12.958 11.846 11.846 0 0 1-.307 2.2c-.335 1.442-.158 1.63 1.313 1.51a3.3 3.3 0 0 0 .819-.187 14.804 14.804 0 0 0 6.356-3.859 35.84 35.84 0 0 1 7.174-4.934 18.425 18.425 0 0 0 6.02-5.053 13.166 13.166 0 0 0 2.458-6.84c.05-.838.02-1.756 1.224-1.687z" fill="#010101"/><path d="M63.214 47.248c1.401.138 2.773.75 4.224.168.483-.198.592.158.493.631a11.152 11.152 0 0 0 .05 3.84 1.974 1.974 0 0 0 1.549 1.845 2.38 2.38 0 0 0 2.19-.75 12.583 12.583 0 0 0 2.833-2.96c.593 1.855 1.974 2.555 3.247 3.473a2.162 2.162 0 0 0 2.33.385c.898-.405.986-1.293 1.124-2.063.08-.503-.217-1.174.474-1.332a1.451 1.451 0 0 1 1.51.878c.504.77.454 2.142 1.974 1.974.158.75.326 1.5.493 2.25-1.401.612-.878 1.974-.986 2.961a13.609 13.609 0 0 1-4.807 8.34c-2.151 1.865-4.767 2.96-7.145 4.51a57.516 57.516 0 0 0-5.31 4.342 9.977 9.977 0 0 1-4.934 2.457.543.543 0 0 1-.237-.602c.335-1.569.573-3.158.71-4.757a.74.74 0 0 1 .356-.572c1.214.227 1.905-.108 1.974-.987a.71.71 0 0 0-.267-.74c-.325-.197-.493.089-.651.316-.158.227-.434.73-.987.72-.74-.424-.493-1.125-.414-1.707.058-1.057.399-2.08.986-2.96.583-.919 1.145-1.836.523-2.962.129-1.973.908-3.76.938-5.724a19.324 19.324 0 0 0-2.181-9.612c-.345-.493-.671-.938-.06-1.362z" fill="#FF9BB8"/><path d="M48.4 40.794c-.148 1.312 1.066 1.164 1.727 1.608.1.267 0 .434-.236.583a3.068 3.068 0 0 1-4.155-1.303 1.294 1.294 0 0 0 .385-.918l2.28.03z" fill="#DCE062"/><path d="M33.4 56.969c2.27 0 3.71-1.46 4.993-3.08.178-.236.267-.552.572-.69a11.744 11.744 0 0 0 3.514 3.425 1.807 1.807 0 0 0 2.842-1.234c.384-1.541.43-3.147.138-4.708 1.496.222 3.015.222 4.51 0a2.586 2.586 0 0 0 2.112-1.361 2.042 2.042 0 0 0-.74-2.448c-.325-.247-.987-.651-.552-1.204a1.599 1.599 0 0 1 1.707-.563c5.32 1.303 8.3 6.228 8.596 11.113a25.787 25.787 0 0 1-1.599 9.277c-.81 2.615-.71 5.408-.987 8.142a9.642 9.642 0 0 1-2.96 6.691.68.68 0 0 1-.632.168c-2.596-.671-4.856-1.826-6.227-4.283.059-.484.375-.987.118-1.46-.257-.475-.247-.919-.78-.988-.533-.069-.67.494-.987.81a5.714 5.714 0 0 1-3.118-1.895c-.089-.602.464-1.116.197-1.747-.158-.405-.325-.84-.8-.849-.63 0-.463.563-.532.987-.06.572-.405.72-.869.483a16.581 16.581 0 0 1-6.849-5.862 1.412 1.412 0 0 1-.167-.67c.453-1.915.345-2.152-1.471-2.961a6.139 6.139 0 0 1-.987-4.116c.089-.523.188-1.115.957-.977z" fill="#FF9BB8"/><path d="m43.95 72.582 3.059 1.974a7.898 7.898 0 0 0 1.816 1.618 10.58 10.58 0 0 0 6.71 4.204c-3.197 2.418-6.75 1.639-9.74-.987-2.704-2.329-5.181-4.983-8.399-6.622-2.007-1-3.83-2.335-5.388-3.947a13.61 13.61 0 0 1-3.642-7.836c-.306-2.635.76-4.846 1.767-7.106.306-.69.809-.622 1.381-.543.573.08.602.573.592.987 0 1.096.09 2.122 1.293 2.615-1.253 1.422-.325 2.862 0 4.293.075.264.177.519.306.76a2.566 2.566 0 0 0 1.48 2.833c.563 1.747 1.974 2.832 3.258 3.947 1.12.888 2.319 1.671 3.582 2.34.306.197.612.355.553-.257.898.217.868 1.204 1.371 1.727zM64.21 67.026a5.19 5.19 0 0 0-.71 4.382c.395.335.237.611-.099.868l-.987 5.921c-.7.474-1.48.178-2.22.198-.375 0-.83-.109-.582-.78.668-2.153 1-4.397.986-6.652.248-2.899.828-5.76 1.728-8.526a16.501 16.501 0 0 0-.652-11.705 11.438 11.438 0 0 0-5.635-5.99c.454-1.195 1.618-1.372 2.497-1.974.987.631 2.18 1.115 2.793 2.25-.138 1.41.79 1.904 1.924 2.22-.503 1.056.583 1.57.888 2.31a19.521 19.521 0 0 1 .533 14.053c-.02.138-.02.277 0 .415-.148.296-.463.424-.66.66-.78.899-.721 1.5.197 2.35z" fill="#63464D"/><path d="M71.691 50.426c-.473.543-.848 1.204-1.618 1.381-1.323-2.733.187-6.71 3.276-8.665.425-.266.632-.118.701.218.04.456.04.915 0 1.371-.702.835-1.33 1.73-1.875 2.675a4.165 4.165 0 0 0-.484 3.02zM43.683 53.248c.375.553-.06.987-.099 1.56-3.06-.987-4.411-4.935-3.947-7.639.059-.385.256-1.066.355-1.056a1.262 1.262 0 0 1 1.174.8.73.73 0 0 1 .257.473c.01 2.24 1.095 4.066 2.26 5.862z" fill="#CCD854"/><path d="M43.505 44.721c1.648-.453 2.961.326 4.254 1.175a10.037 10.037 0 0 1 2.349 2.477c-2.724.918-5.221-.089-6.662-2.96-.118-.198-.503-.504.06-.691zM77.238 44.583c1.5.928 1.737 2.556 2.092 4.047a4.56 4.56 0 0 1-.05 2.96c-1.105.296-1.53-.631-1.973-1.243-1.313-1.697-1.204-3.592-.504-5.497a.405.405 0 0 1 .435-.267zM70.28 41.583c.444.533 1.165-.622 1.57.425-.911.734-1.727 1.58-2.429 2.516a4.343 4.343 0 0 1-4.243 1.115c-.316-.523.069-.937.355-1.204 1.362-1.293 2.734-2.615 4.747-2.852zM36.627 47.16c.375-.08.611-.701 1.065-.366.454.336 0 .681 0 .987a5.515 5.515 0 0 0 0 1.619c.662 2.19-.592 3.414-2.151 4.52a.66.66 0 0 1-.365-.553 9.02 9.02 0 0 1 1.45-6.208z" fill="#DCE062"/><path d="M36.627 47.16a13.945 13.945 0 0 0-1.037 6.799 1.293 1.293 0 0 1-1.381.918c-.336 0-.257-.76-.287-1.224a7.332 7.332 0 0 1 2.705-6.494zM70.28 41.583c-1.974 1.066-4.007 1.974-5.112 4.056-.73.227-1.352-.187-2.32-.177 2.172-2.34 4.106-4.441 7.432-3.879z" fill="#CCD854"/><path d="M43.683 53.248c-2.073-1.628-2.605-3.858-2.517-6.336 1.875.859 2.29 2.626 2.547 4.392.098.592.483 1.313-.03 1.944zM71.691 50.426c-.266-.07-.592-.129-.533-.494.316-2.112.987-4.007 2.961-5.2a5.921 5.921 0 0 1-2.428 5.694z" fill="#DCE062"/><path d="M61.29 45.027c-.919-.77-2.123-1.174-2.794-2.25.889-.75 2.053-.79 3.07-1.194.542-.217.72.464 1.066.72.542.405-.09.573-.247.84l-1.096 1.884z" fill="#8E636D"/><path d="M39.656 43.863c-1.174.533-1.46.286-1.707-1.51a33.555 33.555 0 0 1-.335-5.359c0-1.401.463-1.846 1.47-1.599a15.277 15.277 0 0 0 .572 8.468zM43.505 44.722c1.115 3.177 3.583 3.947 6.603 3.651.286.296 0 .425-.188.464-2.595.76-4.135.227-5.813-1.865a25.593 25.593 0 0 0-2.062-2.122c.513-.247.957-.454 1.46-.128zM45.736 41.682c1.697 1.52 2.96 1.717 4.44.72a.71.71 0 0 1 .928.395c.178.494-.404.513-.621.76-.987 1.096-1.885 1.135-2.961.118a3.17 3.17 0 0 0-1.776-.641 16.15 16.15 0 0 1-2.063-.503l2.053-.85zM77.238 44.583c-1.293 2.961-.356 6.06 2.043 6.988 0 .384-.158.858-.642.473a8.358 8.358 0 0 1-2.832-3.247 1.824 1.824 0 0 1 0-1.648c.503-.987.108-2.132.375-3.345.404.276.829.365 1.056.78zM74.731 41.159c-.563-.09-.641-.425-.414-.869.293-.573.623-1.126.986-1.658a15.128 15.128 0 0 1 4.155-4.115c.375-.227.869-.573.987.247-.276.809-1.135.986-1.628 1.618-1.688 1.313-2.685 3.227-4.086 4.777zM83.564 47.475c.434.306.434.76.444 1.273h-.987c-1.234 0-2.073-.335-2.27-1.816-.197-1.48-1.174-2.487-2.19-3.79a3.73 3.73 0 0 1 2.289 1.214c.272.371.464.795.562 1.244a1.914 1.914 0 0 0 2.152 1.875z" fill="#CCD854"/><path d="M68.158 38.672c.71-.128 1.115.543 1.757.68-1.768.2-3.473.772-5.004 1.679-.582.345-.918-.119-1.204-.563-.552-.869.227-.987.72-1.214 1.2-.41 2.463-.607 3.731-.582zM33.113 46.824c.385-.583.987-.612 1.747-.681a9.524 9.524 0 0 0-2.546 4.54c-.168.828-.987.641-1.57.809-.602-.533-.286-1.096 0-1.639a9.512 9.512 0 0 1 2.37-3.03z" fill="#DCE062"/><path d="M39.656 43.863c-.878-.464-.848-1.362-.987-2.142-.266-2.121-.582-4.263.366-6.326.365 1.204 0 2.398 0 3.602.02 1.698.65 3.257.621 4.866z" fill="#C0D23F"/><path d="M68.158 38.672c-1.174.296-2.349.622-3.543.868-.552.119-.927.296-.908.928l-.987-.73c-.523-.385-.217-.671.168-.76 1.737-.355 3.474-.898 5.27-.306zM33.113 46.824c-.661.986-1.303 1.973-1.974 2.96a1.974 1.974 0 0 0-.375 1.698c-1.628-.07-1.697-.119-.809-1.421.888-1.303 1.53-2.705 3.158-3.237z" fill="#CCD854"/><path d="M83.564 47.475c-1.421.375-1.974.138-2.24-1.076-.168-.68-.287-1.372-.425-2.063a6.731 6.731 0 0 1 2.665 3.139z" fill="#DCE062"/><path d="M74.731 41.159a11.843 11.843 0 0 1 4.027-4.935c.237-.217.296-.059.325.158-1.164 1.599-2.96 2.694-3.582 4.737-.089.336-.504.375-.77.04z" fill="#C0D23F"/><path d="M68.247 68.22c.099-.523 0-1.49 1.056-1.806.444-.129 1.174-.119 1.145.582 0 .878 0 1.885-1.135 2.24-.651.198-.967-.059-1.066-1.016z" fill="#160403"/><path d="M72.382 58.588c.158-.425 0-1.392 1.076-1.658.513-.139 1.184.108 1.155.65 0 .82-.178 1.777-1.135 2.152-.71.277-1.037-.079-1.096-1.144z" fill="#1B0504"/><path d="M75.195 63.413c-.138.83-.237 1.787-1.165 2.112a.869.869 0 0 1-1.145-.868c.06-.77.129-1.688 1.145-1.974a.858.858 0 0 1 1.165.73z" fill="#1C0504"/><path d="M68.662 63.325c-.583.079-.8-.366-.987-.76-.188-.395.66-2.29 1.056-2.29.394 0 .987 0 1.154.523a4.007 4.007 0 0 1-1.223 2.527z" fill="#180504"/><path d="M63.372 72.276c.135-.269.17-.576.098-.868.202-.25.387-.515.553-.79.257-.454.474-.987 1.145-.632.671.356.493.888.395 1.343-.287 1.42-1.273 1.815-2.191.947z" fill="#1A0504"/><path d="M64.21 67.026c-.64 0-1.282-.06-1.203-.898.098-.987.384-1.974 1.677-2.142 1.185 1.224-.128 2.053-.473 3.04z" fill="#110201"/><path d="M69.293 55.242c.08.592-.819 2.29-1.234 2.31a.847.847 0 0 1-.986-.899c.079-.858.296-1.786 1.332-1.974a.711.711 0 0 1 .888.563z" fill="#130302"/><path d="M78.61 62.23c-.612 0-1.076-.613-.987-.988.158-.799.385-1.746 1.292-2.072a.72.72 0 0 1 .987.671 3.73 3.73 0 0 1-1.292 2.388z" fill="#110302"/><path d="M48.696 62.86c-.424-.63-.246-1.341.356-1.46a1.253 1.253 0 0 1 1.54 1.214c.108.69.394 1.52-.484 1.698-.879.177-1.362-.533-1.412-1.451z" fill="#1A0707"/><path d="M54.342 65.101c.927.119.799 1.254 1.194 1.905.236.375-.158 1.046-.75 1.066-.928 0-1.343-.652-1.48-1.47a1.145 1.145 0 0 1 1.036-1.5z" fill="#1E0A09"/><path d="M35.146 64.854c-1.55 0-2.25-1.381-1.48-2.832 1.687.01 2.359 1.293 1.48 2.832z" fill="#1A0606"/><path d="M44.048 63.433c1.214-.059.888 1.244 1.372 1.846.306.385-.109 1.056-.661 1.115-.869.099-1.273-.592-1.5-1.293a1.165 1.165 0 0 1 .79-1.668z" fill="#1E0A09"/><path d="M48.825 76.135c-1.116 0-1.609-.632-1.816-1.619a.928.928 0 0 1 .878-1.273.987.987 0 0 1 1.046.898c.09.661.75 1.372-.108 1.994z" fill="#1E0908"/><path d="M54.51 72.483c-.1.533.434 1.352-.504 1.599-1.46.385-1.184-1.095-1.628-1.727-.346-.474.246-1.066.69-1.135.8-.138 1.204.484 1.441 1.263z" fill="#1B0807"/><path d="M54.944 54.946c-.1-.563-.435-1.253.453-1.441 1.313-.276 1.284.928 1.59 1.638a.907.907 0 0 1-.701 1.263c-.8.01-1.214-.7-1.343-1.46z" fill="#0E0403"/><path d="M46.16 59.13c.207.85.296 1.412-.612 1.52-1.382.178-1.056-1.135-1.46-1.747-.297-.454.177-.986.76-1.056 1.115-.167 1.006.928 1.312 1.283z" fill="#1F0A09"/><path d="M51.726 57.206c0 .513.129 1.125-.513 1.312-1.174.336-1.352-.75-1.707-1.391a1.165 1.165 0 0 1 .631-1.52c1.125-.217.997 1.086 1.59 1.599z" fill="#170606"/><path d="M48.233 67.41c1.361-.266 1.47.77 1.786 1.422a.898.898 0 0 1-.642 1.381c-1.253.208-1.046-1.046-1.46-1.628a.84.84 0 0 1 .316-1.175z" fill="#200B0A"/><path d="M37.84 67.124c.06-.651-.118-1.332.77-1.45 1.234-.158.987.986 1.382 1.608a.81.81 0 0 1-.69 1.254c-1.205.197-.948-1.047-1.462-1.412z" fill="#120504"/><path d="M43.95 72.582c-.988-.08-.83-1.214-1.412-1.658a.989.989 0 0 1 .434-1.402c.484-.236.987.178 1.293.573a1.806 1.806 0 0 1 .237 1.974 3.056 3.056 0 0 1-.553.513z" fill="#0E0303"/><path d="M40.801 61.49c.563.7 0 1.164-.553 1.272-1.43.247-1.055-1.194-1.49-1.855-.325-.503.158-.918.622-.987.928-.01 1.332.622 1.421 1.57z" fill="#090303"/><path d="M55.861 60.315c.306 1.075.1 1.776-.572 1.973-.671.198-.908-.473-.987-1.066v-.128c-.414-.631-.71-1.45.148-1.737.859-.286 1.224.563 1.411.958z" fill="#0E0404"/></svg>