<svg width="38" height="38" fill="none" xmlns="http://www.w3.org/2000/svg"><g clip-path="url(#a)"><rect width="38" height="38" rx="5" fill="#fff"/><path fill-rule="evenodd" clip-rule="evenodd" d="M88 0H0v38h88V0zM29.189 13.773a2.72 2.72 0 0 0-1.916-1.92c-1.689-.453-8.463-.453-8.463-.453s-6.77 0-8.463.453a2.72 2.72 0 0 0-1.916 1.92C7.98 15.466 7.98 19 7.98 19s0 3.534.451 5.227a2.72 2.72 0 0 0 1.916 1.92c1.692.453 8.463.453 8.463.453s6.774 0 8.463-.453a2.72 2.72 0 0 0 1.916-1.92c.451-1.693.451-5.227.451-5.227s0-3.534-.451-5.227zm-12.543 8.485L22.273 19l-5.627-3.258v6.516z" fill="#FF3000"/></g><defs><clipPath id="a"><rect width="38" height="38" rx="5" fill="#fff"/></clipPath></defs></svg>